<svg xmlns="http://www.w3.org/2000/svg" viewBox="0 0 330.38 404.48"><defs><style>.cls-2{fill:#bcbcbc}.cls-3{fill:#d3d3d3}.cls-4{fill:#0b4656}.cls-5{fill:#063444}.cls-6{fill:#aeb8ff}.cls-7{fill:#7181d1}.cls-8{fill:#4c5a8e}.cls-9{fill:#ffdc79}.cls-10{fill:#fe5c99}.cls-11,.cls-56,.cls-67{fill:#fff}.cls-12{fill:#eaeaea}.cls-15{fill:#076d6d}.cls-15,.cls-19{opacity:.5}.cls-16{fill:#ededed}.cls-17{fill:#190b05}.cls-18{fill:#442312}.cls-19,.cls-20,.cls-21{fill:#defffe}.cls-20{opacity:.75}.cls-23{fill:#ffe1bd}.cls-25{fill:#232323}.cls-49{fill:#efefef}.cls-28{fill:#3a3a3a}.cls-29{fill:#2d2d2d}.cls-32{fill:#713e23}.cls-33{fill:none;stroke:#381e1e;stroke-miterlimit:10;stroke-width:.7px}.cls-34{fill:#474747}.cls-36{fill:#022636}.cls-41{fill:#9b5934}.cls-42{fill:#7f391b}.cls-43{fill:#934b32}.cls-44{fill:#682c17}.cls-47{fill:#e2e2e2}.cls-47,.cls-49{opacity:.39}.cls-51{fill:#dbdbdb}.cls-56{opacity:.2}.cls-66{opacity:.3;fill:#c9d4fe}.cls-67{opacity:.1}</style></defs><g style="isolation:isolate"><g id="Layer_2" data-name="Layer 2"><g id="OBJECTS"><path class="cls-2" d="M155.41 60.62l-1.25.75c-1.86 1.12-3.2.15-2.69-1.94.23-1 .11-2-1.37-2.26a2.28 2.28 0 0 0-1.57.4 6.26 6.26 0 0 0-2.84 4.64 2.45 2.45 0 0 0 .09.63c.51 1.48-.83 4.06-2.69 5.18l-1.25.75a5.53 5.53 0 0 0-2.59 4.15v.48L158 62.13v-.48c0-1.43-1.16-1.89-2.59-1.03zm-6.8 1.38c-.85.51-1.53.24-1.53-.6a3.26 3.26 0 0 1 1.53-2.45c.85-.51 1.53-.24 1.53.61a3.26 3.26 0 0 1-1.53 2.44z"/><path class="cls-3" d="M171.44 60.46l-45.66 27.43v-1.17c0-3.48 2.82-8 6.3-10.09l33.06-19.86c3.48-2.09 6.3-1 6.3 2.51z"/><path class="cls-4" d="M202.44 43.89l-2.81-1.15a2.41 2.41 0 0 0-2.18.18L94.79 106a6.87 6.87 0 0 0-3.27 5.85v167.3a2.83 2.83 0 0 0 1.48 2.49 2.91 2.91 0 0 0 .63.26l2.15.88.85-1.65 101.87-62.62a5.62 5.62 0 0 0 2.68-4.79V45a2.42 2.42 0 0 0-.17-.85l1.08.31z"/><path class="cls-5" d="M203.85 46.11V214.8a5.62 5.62 0 0 1-2.68 4.79L98.54 282.67a2.86 2.86 0 0 1-4.35-2.43V113a6.87 6.87 0 0 1 3.27-5.85L200.1 44a2.46 2.46 0 0 1 3.75 2.11z"/><path class="cls-6" d="M200.1 50.36v163.5a2.11 2.11 0 0 1-1 1.79l-99.7 61.28a1 1 0 0 1-1.46-.82V112.87a3.06 3.06 0 0 1 1.46-2.61l99-60.85a1.12 1.12 0 0 1 1.7.95z"/><path class="cls-7" d="M143.5 93.52v61a.79.79 0 0 1-.37.67L105.94 178a.36.36 0 0 1-.55-.3v-60.87a1.14 1.14 0 0 1 .54-1l36.93-22.7a.42.42 0 0 1 .64.39zM143.5 166v5.85a.79.79 0 0 1-.37.67l-37.19 22.86a.36.36 0 0 1-.55-.3v-5.75a1.14 1.14 0 0 1 .54-1l36.93-22.7a.42.42 0 0 1 .64.37z"/><path class="cls-8" d="M139.61 146.77v4.65a.62.62 0 0 1-.3.53l-29.59 18.18a.28.28 0 0 1-.43-.24v-4.58a.91.91 0 0 1 .43-.77l29.38-18.06a.33.33 0 0 1 .51.29z"/><path class="cls-7" d="M143.5 178.14V184a.79.79 0 0 1-.37.67l-37.19 22.86a.36.36 0 0 1-.55-.3v-5.75a1.14 1.14 0 0 1 .54-1l36.93-22.7a.42.42 0 0 1 .64.36zM135 195.46v5.85a.79.79 0 0 1-.37.67l-28.73 17.66a.36.36 0 0 1-.55-.3v-5.75a1.14 1.14 0 0 1 .54-1l28.47-17.5a.42.42 0 0 1 .64.37zM184.09 158.46v5.85a.79.79 0 0 1-.37.67L155 182.64a.36.36 0 0 1-.54-.3v-5.75a1.14 1.14 0 0 1 .54-1l28.47-17.5a.42.42 0 0 1 .62.37zM184.09 175.68v5.85a.79.79 0 0 1-.37.67L155 199.86a.36.36 0 0 1-.54-.3v-5.76a1.14 1.14 0 0 1 .54-1l28.47-17.5a.42.42 0 0 1 .62.38zM143.5 202.39v5.85a.79.79 0 0 1-.37.67l-37.19 22.86a.36.36 0 0 1-.55-.3v-5.77a1.14 1.14 0 0 1 .54-1l36.94-22.7a.42.42 0 0 1 .63.39zM117.41 239.25v8.47a1.14 1.14 0 0 1-.54 1l-7.87 4.77a.52.52 0 0 1-.79-.44v-8.34a1.66 1.66 0 0 1 .79-1.41l7.51-4.56a.6.6 0 0 1 .9.51z"/><path class="cls-9" d="M130.45 231.28v8.47a1.14 1.14 0 0 1-.54 1l-7.91 4.77a.52.52 0 0 1-.79-.44v-8.34a1.66 1.66 0 0 1 .79-1.41l7.51-4.56a.6.6 0 0 1 .94.51z"/><path class="cls-10" d="M143.5 223.31v8.47a1.14 1.14 0 0 1-.54 1l-7.89 4.79a.52.52 0 0 1-.79-.44v-8.34a1.66 1.66 0 0 1 .79-1.41l7.51-4.56a.6.6 0 0 1 .92.49z"/><path class="cls-7" d="M177.56 73.13v2.22a.79.79 0 0 1-.37.67l-24.91 15.32a.36.36 0 0 1-.54-.3V88.9a1.14 1.14 0 0 1 .54-1l24.65-15.16a.42.42 0 0 1 .63.39zM168.42 85.2v2.22a.79.79 0 0 1-.37.67l-15.76 9.75a.36.36 0 0 1-.54-.3V95.4a1.14 1.14 0 0 1 .54-1l15.5-9.59a.42.42 0 0 1 .63.39zM189.85 78.59v2.22a.79.79 0 0 1-.37.67l-37.19 22.86a.36.36 0 0 1-.54-.3v-2.14a1.14 1.14 0 0 1 .54-1l36.93-22.7a.42.42 0 0 1 .63.39zM186.53 87.06v2.22a.79.79 0 0 1-.37.67l-33.87 20.88a.36.36 0 0 1-.54-.3v-2.13a1.14 1.14 0 0 1 .54-1l33.61-20.69a.42.42 0 0 1 .63.35zM171.75 102.69v2.22a.79.79 0 0 1-.37.67l-19.1 11.75a.36.36 0 0 1-.54-.3v-2.13a1.14 1.14 0 0 1 .54-1l18.84-11.59a.42.42 0 0 1 .63.38zM189.85 98.09v2.22a.79.79 0 0 1-.37.67l-37.19 22.86a.36.36 0 0 1-.54-.3v-2.14a1.14 1.14 0 0 1 .54-1l36.93-22.7a.42.42 0 0 1 .63.39zM189.85 104.59v2.22a.79.79 0 0 1-.37.67l-37.19 22.86a.36.36 0 0 1-.54-.3v-2.14a1.14 1.14 0 0 1 .54-1l36.93-22.7a.42.42 0 0 1 .63.39zM180.92 116.61v2.22a.79.79 0 0 1-.37.67l-28.27 17.34a.36.36 0 0 1-.54-.3v-2.14a1.14 1.14 0 0 1 .54-1l28-17.18a.42.42 0 0 1 .64.39zM189.85 117.59v2.22a.79.79 0 0 1-.37.67l-37.19 22.86a.36.36 0 0 1-.54-.3v-2.14a1.14 1.14 0 0 1 .54-1l36.93-22.7a.42.42 0 0 1 .63.39zM189.85 124.09v2.22a.79.79 0 0 1-.37.67l-37.19 22.86a.36.36 0 0 1-.54-.3v-2.14a1.14 1.14 0 0 1 .54-1l36.93-22.7a.42.42 0 0 1 .63.39z"/><path class="cls-11" d="M130.71 120.31c0 3.46-2.8 10.53-6.26 12.69s-6.26-1.41-6.26-4.87 2.8-8 6.26-10.18 6.26-1.1 6.26 2.36zM139.61 139.69v1l-30.32 18.94v-1c0-8.37 6.79-19.4 15.16-24.63 4.19-2.62 8-3.29 10.72-2.26s4.44 3.77 4.44 7.95zM174.57 62l-45.66 27.39v-1.17c0-3.48 2.82-8 6.3-10.09l33.06-19.86c3.48-2.09 6.3-1 6.3 2.51z"/><path class="cls-12" d="M158.53 62.12l-1.25.75c-1.86 1.12-3.2.15-2.69-1.94.23-1 .11-2-1.37-2.26a2.28 2.28 0 0 0-1.57.4 6.26 6.26 0 0 0-2.84 4.64 2.45 2.45 0 0 0 .09.63c.51 1.48-.83 4.06-2.69 5.18l-1.25.75a5.53 5.53 0 0 0-2.59 4.15v.48l18.77-11.28v-.48c-.02-1.42-1.14-1.88-2.61-1.02zm-6.8 1.35c-.85.51-1.53.24-1.53-.6a3.26 3.26 0 0 1 1.53-2.45c.85-.51 1.53-.24 1.53.61a3.26 3.26 0 0 1-1.52 2.44z"/><path class="cls-7" d="M189.85 91.5v2.22a.79.79 0 0 1-.37.67l-15.27 9.49a.36.36 0 0 1-.54-.3v-2.13a1.14 1.14 0 0 1 .54-1l15-9.33a.42.42 0 0 1 .64.38z"/><g opacity=".6"><path class="cls-2" d="M261.07 29l-.87.52c-1.28.77-2.21.1-1.86-1.34.16-.72.07-1.38-.94-1.56a1.58 1.58 0 0 0-1.09.28 4.33 4.33 0 0 0-2 3.21 1.7 1.7 0 0 0 .06.44c.35 1-.58 2.81-1.86 3.58l-.87.52a3.83 3.83 0 0 0-1.79 2.87v.33l13-7.8v-.33c.01-.95-.79-1.27-1.78-.72zm-4.7.93c-.59.35-1.06.16-1.06-.42a2.26 2.26 0 0 1 1.06-1.69c.59-.35 1.06-.16 1.06.42a2.26 2.26 0 0 1-1.06 1.76z"/><path class="cls-3" d="M272.16 28.93l-31.58 19v-.83c0-2.41 2-5.53 4.36-7l22.86-13.72c2.41-1.45 4.36-.67 4.36 1.74z"/><path class="cls-4" d="M293.6 17.48l-1.95-.8a1.66 1.66 0 0 0-1.51.12l-71 43.63a4.75 4.75 0 0 0-2.26 4v115.7a2 2 0 0 0 1 1.72 2 2 0 0 0 .44.18l1.48.61.59-1.14 70.47-43.31a3.89 3.89 0 0 0 1.85-3.31V18.26a1.68 1.68 0 0 0-.12-.59l.75.21z"/><path class="cls-5" d="M294.57 19v116.69a3.89 3.89 0 0 1-1.85 3.31l-71 43.63a2 2 0 0 1-3-1.68V65.24a4.75 4.75 0 0 1 2.26-4l71-43.63a1.7 1.7 0 0 1 2.59 1.39z"/><path class="cls-6" d="M292 21.95V135a1.46 1.46 0 0 1-.69 1.24l-69 42.38a.66.66 0 0 1-1-.57V65.18a2.12 2.12 0 0 1 1-1.8l68.48-42.09a.77.77 0 0 1 1.21.66z"/><path class="cls-7" d="M252.83 51.8V94a.54.54 0 0 1-.26.46l-25.72 15.81a.25.25 0 0 1-.38-.21V67.92a.79.79 0 0 1 .38-.67l25.54-15.7a.29.29 0 0 1 .44.25zM252.83 101.94v4a.54.54 0 0 1-.26.46l-25.72 15.81a.25.25 0 0 1-.38-.21v-4a.79.79 0 0 1 .38-.67l25.54-15.7a.29.29 0 0 1 .44.31z"/><path class="cls-8" d="M250.14 88.63v3.22a.43.43 0 0 1-.21.37l-20.46 12.58a.2.2 0 0 1-.3-.17v-3.17a.63.63 0 0 1 .3-.54l20.32-12.49a.23.23 0 0 1 .35.2z"/><path class="cls-7" d="M252.83 110.33v4a.54.54 0 0 1-.26.46l-25.72 15.81a.25.25 0 0 1-.38-.21v-4a.79.79 0 0 1 .38-.67l25.54-15.7a.29.29 0 0 1 .44.31zM247 122.31v4a.54.54 0 0 1-.26.46L226.85 139a.25.25 0 0 1-.38-.21v-4a.79.79 0 0 1 .38-.67l19.69-12.11a.29.29 0 0 1 .46.3zM280.91 96.71v4a.54.54 0 0 1-.26.46l-19.87 12.22a.25.25 0 0 1-.38-.21v-4a.79.79 0 0 1 .38-.67l19.69-12.11a.29.29 0 0 1 .44.31zM280.91 108.63v4a.54.54 0 0 1-.26.46l-19.87 12.22a.25.25 0 0 1-.38-.21v-4a.79.79 0 0 1 .38-.67l19.69-12.11a.29.29 0 0 1 .44.31zM252.83 127.1v4a.54.54 0 0 1-.26.46l-25.72 15.81a.25.25 0 0 1-.38-.21v-4a.79.79 0 0 1 .38-.67l25.54-15.7a.29.29 0 0 1 .44.31zM234.79 152.6v5.86a.79.79 0 0 1-.38.67l-5.41 3.31a.36.36 0 0 1-.55-.31v-5.77a1.14 1.14 0 0 1 .55-1l5.19-3.15a.42.42 0 0 1 .6.39z"/><path class="cls-9" d="M243.81 147.08v5.86a.79.79 0 0 1-.38.67l-5.43 3.32a.36.36 0 0 1-.55-.31v-5.77a1.14 1.14 0 0 1 .55-1l5.19-3.15a.42.42 0 0 1 .62.38z"/><path class="cls-10" d="M252.83 141.57v5.86a.79.79 0 0 1-.38.67l-5.45 3.31a.36.36 0 0 1-.55-.31v-5.77a1.15 1.15 0 0 1 .55-1l5.19-3.15a.42.42 0 0 1 .64.39z"/><path class="cls-7" d="M276.39 37.69v1.54a.54.54 0 0 1-.26.46l-17.22 10.6a.25.25 0 0 1-.38-.21V48.6a.79.79 0 0 1 .38-.67l17-10.48a.29.29 0 0 1 .48.24zM270.07 46v1.54a.54.54 0 0 1-.26.46l-10.9 6.74a.25.25 0 0 1-.38-.21V53.1a.79.79 0 0 1 .38-.67l10.72-6.63a.29.29 0 0 1 .44.2zM284.89 41.47V43a.54.54 0 0 1-.26.46l-25.72 15.82a.25.25 0 0 1-.38-.21V57.6a.79.79 0 0 1 .38-.67l25.54-15.7a.29.29 0 0 1 .44.24zM282.6 47.33v1.54a.54.54 0 0 1-.26.46l-23.43 14.45a.25.25 0 0 1-.38-.21v-1.48a.79.79 0 0 1 .38-.67l23.25-14.33a.29.29 0 0 1 .44.24zM272.37 58.14v1.54a.54.54 0 0 1-.26.46l-13.21 8.13a.25.25 0 0 1-.38-.21v-1.47a.79.79 0 0 1 .38-.67l13-8a.29.29 0 0 1 .47.22zM284.89 55v1.5a.54.54 0 0 1-.26.46l-25.72 15.81a.25.25 0 0 1-.38-.21v-1.48a.79.79 0 0 1 .38-.67l25.54-15.7a.29.29 0 0 1 .44.29zM284.89 59.45V61a.54.54 0 0 1-.26.46l-25.72 15.8a.25.25 0 0 1-.38-.21v-1.47a.79.79 0 0 1 .38-.67l25.54-15.7a.29.29 0 0 1 .44.24zM278.72 67.77v1.53a.54.54 0 0 1-.26.46l-19.55 12a.25.25 0 0 1-.38-.21v-1.48a.79.79 0 0 1 .38-.67l19.37-11.88a.29.29 0 0 1 .44.25zM284.89 68.44V70a.54.54 0 0 1-.26.46l-25.72 15.79a.25.25 0 0 1-.38-.21v-1.47a.79.79 0 0 1 .38-.67l25.54-15.7a.29.29 0 0 1 .44.24zM284.89 72.94v1.54a.54.54 0 0 1-.26.46l-25.72 15.81a.25.25 0 0 1-.38-.21v-1.47a.79.79 0 0 1 .38-.67l25.54-15.7a.29.29 0 0 1 .44.24z"/><path class="cls-11" d="M244 70.33c0 2.39-1.94 7.28-4.33 8.78s-4.33-1-4.33-3.37 1.94-5.54 4.33-7 4.33-.8 4.33 1.59zM250.14 83.73v.7l-21 13.1v-.7c0-5.79 4.69-13.42 10.48-17 2.9-1.81 5.52-2.27 7.41-1.56s3.11 2.57 3.11 5.46zM274.32 30l-31.58 19v-.81c0-2.41 2-5.53 4.36-7L270 27.42c2.41-1.45 4.36-.67 4.36 1.74z"/><path class="cls-12" d="M263.23 30.08l-.87.52c-1.28.77-2.21.1-1.86-1.34.16-.72.07-1.38-.94-1.56a1.58 1.58 0 0 0-1.09.28 4.33 4.33 0 0 0-2 3.21 1.7 1.7 0 0 0 .06.44c.35 1-.58 2.81-1.86 3.58l-.87.52a3.83 3.83 0 0 0-1.8 2.86v.33l13-7.8v-.33c0-.99-.78-1.31-1.77-.71zm-4.7.93c-.59.35-1.06.16-1.06-.42a2.26 2.26 0 0 1 1.06-1.69c.59-.35 1.06-.16 1.06.42a2.26 2.26 0 0 1-1.06 1.68z"/><path class="cls-7" d="M284.89 50.4v1.54a.54.54 0 0 1-.26.46L274.07 59a.25.25 0 0 1-.38-.21v-1.51a.79.79 0 0 1 .38-.67l10.38-6.45a.29.29 0 0 1 .44.24z"/></g><g opacity=".4"><path class="cls-2" d="M44.19 161.87l-.87.52c-1.28.77-2.21.1-1.86-1.34.16-.72.07-1.38-.94-1.56a1.58 1.58 0 0 0-1.09.28 4.33 4.33 0 0 0-2 3.21 1.7 1.7 0 0 0 .06.44c.35 1-.58 2.81-1.86 3.58l-.87.52a3.83 3.83 0 0 0-1.76 2.86v.33l13-7.8v-.33c0-.99-.82-1.31-1.81-.71zm-4.7.93c-.59.35-1.06.16-1.06-.42a2.26 2.26 0 0 1 1.06-1.69c.59-.35 1.06-.16 1.06.42a2.26 2.26 0 0 1-1.06 1.69z"/><path class="cls-3" d="M55.28 161.76l-31.58 19v-.81c0-2.41 2-5.53 4.36-7l22.86-13.74c2.41-1.45 4.36-.67 4.36 1.74z"/><path class="cls-4" d="M76.72 150.3l-1.95-.8a1.66 1.66 0 0 0-1.51.12l-71 43.63a4.75 4.75 0 0 0-2.26 4V313a2 2 0 0 0 1 1.72 2 2 0 0 0 .44.18l1.48.61.59-1.14L74 271.07a3.89 3.89 0 0 0 1.85-3.31V151.09a1.68 1.68 0 0 0-.12-.59l.75.21z"/><path class="cls-5" d="M77.69 151.84v116.67a3.89 3.89 0 0 1-1.85 3.31l-71 43.63a2 2 0 0 1-3-1.68v-115.7a4.75 4.75 0 0 1 2.26-4l71-43.63a1.7 1.7 0 0 1 2.59 1.4z"/><path class="cls-6" d="M75.1 154.77v113.09a1.46 1.46 0 0 1-.69 1.24l-69 42.38a.66.66 0 0 1-1-.56V198a2.12 2.12 0 0 1 1-1.8l68.48-42.09a.77.77 0 0 1 1.21.66z"/><path class="cls-7" d="M36 184.63v42.18a.54.54 0 0 1-.26.46L10 243.08a.25.25 0 0 1-.38-.21v-42.12a.79.79 0 0 1 .38-.67l25.54-15.7a.29.29 0 0 1 .46.25zM36 234.77v4a.54.54 0 0 1-.26.46L10 255.08a.25.25 0 0 1-.38-.21v-4a.79.79 0 0 1 .38-.67l25.54-15.7a.29.29 0 0 1 .46.27z"/><path class="cls-8" d="M33.26 221.46v3.22a.43.43 0 0 1-.21.37l-20.46 12.57a.2.2 0 0 1-.3-.17v-3.17a.63.63 0 0 1 .3-.54l20.32-12.49a.23.23 0 0 1 .35.21z"/><path class="cls-7" d="M36 243.15v4a.54.54 0 0 1-.26.46L10 263.47a.25.25 0 0 1-.38-.21v-4a.79.79 0 0 1 .38-.67l25.54-15.7a.29.29 0 0 1 .46.26zM30.1 255.13v4a.54.54 0 0 1-.26.46L10 271.85a.25.25 0 0 1-.38-.21v-4A.79.79 0 0 1 10 267l19.69-12.11a.29.29 0 0 1 .41.24zM64 229.54v4a.54.54 0 0 1-.26.46l-19.85 12.26a.25.25 0 0 1-.38-.21v-4a.79.79 0 0 1 .38-.67l19.69-12.11a.29.29 0 0 1 .42.27zM64 241.45v4a.54.54 0 0 1-.26.46l-19.85 12.27a.25.25 0 0 1-.38-.21v-4a.79.79 0 0 1 .38-.67l19.69-12.11a.29.29 0 0 1 .42.26zM36 259.93v4a.54.54 0 0 1-.26.46L10 280.24a.25.25 0 0 1-.38-.21v-4a.79.79 0 0 1 .38-.67l25.54-15.7a.29.29 0 0 1 .46.27zM17.9 285.42v5.86a.79.79 0 0 1-.38.67l-5.45 3.31a.36.36 0 0 1-.55-.31v-5.75a1.14 1.14 0 0 1 .55-1l5.19-3.15a.42.42 0 0 1 .64.37z"/><path class="cls-9" d="M26.93 279.91v5.86a.79.79 0 0 1-.38.67l-5.45 3.31a.36.36 0 0 1-.55-.31v-5.77a1.15 1.15 0 0 1 .55-1l5.19-3.15a.42.42 0 0 1 .64.39z"/><path class="cls-10" d="M36 274.4v5.86a.79.79 0 0 1-.38.67l-5.45 3.31a.36.36 0 0 1-.55-.31v-5.77a1.14 1.14 0 0 1 .55-1l5.15-3.16a.42.42 0 0 1 .68.4z"/><path class="cls-7" d="M59.51 170.52v1.54a.54.54 0 0 1-.26.46L42 183.11a.25.25 0 0 1-.38-.21v-1.47a.79.79 0 0 1 .38-.67l17-10.48a.29.29 0 0 1 .51.24zM53.19 178.87v1.54a.54.54 0 0 1-.26.46L42 187.61a.25.25 0 0 1-.38-.21v-1.47a.79.79 0 0 1 .38-.67l10.72-6.63a.29.29 0 0 1 .47.24zM68 174.3v1.54a.54.54 0 0 1-.26.46L42 192.11a.25.25 0 0 1-.38-.21v-1.47a.79.79 0 0 1 .38-.67l25.54-15.7a.29.29 0 0 1 .46.24zM65.71 180.16v1.54a.54.54 0 0 1-.26.46L42 196.6a.25.25 0 0 1-.38-.21v-1.47a.79.79 0 0 1 .38-.67l23.25-14.33a.29.29 0 0 1 .46.24zM55.49 191v1.54a.54.54 0 0 1-.26.46L42 201.1a.25.25 0 0 1-.38-.21v-1.47a.79.79 0 0 1 .38-.67l13-8a.29.29 0 0 1 .49.25zM68 187.78v1.54a.54.54 0 0 1-.26.46L42 205.59a.25.25 0 0 1-.38-.21v-1.47a.79.79 0 0 1 .38-.67l25.54-15.7a.29.29 0 0 1 .46.24zM68 192.28v1.54a.54.54 0 0 1-.26.46L42 210.09a.25.25 0 0 1-.38-.21v-1.48a.79.79 0 0 1 .38-.67L67.57 192a.29.29 0 0 1 .43.28zM61.84 200.59v1.54a.54.54 0 0 1-.26.46L42 214.58a.25.25 0 0 1-.38-.21v-1.47a.79.79 0 0 1 .38-.67l19.4-11.88a.29.29 0 0 1 .44.24zM68 201.27v1.54a.54.54 0 0 1-.26.46L42 219.08a.25.25 0 0 1-.38-.21v-1.47a.79.79 0 0 1 .38-.67L67.57 201a.29.29 0 0 1 .43.27zM68 205.77v1.54a.54.54 0 0 1-.26.46L42 223.58a.25.25 0 0 1-.38-.21v-1.47a.79.79 0 0 1 .38-.67l25.54-15.7a.29.29 0 0 1 .46.24z"/><path class="cls-11" d="M27.1 203.16c0 2.39-1.94 7.28-4.33 8.78s-4.33-1-4.33-3.37 1.94-5.54 4.33-7 4.33-.81 4.33 1.59zM33.26 216.56v.7l-21 13.1v-.7c0-5.79 4.69-13.42 10.48-17 2.9-1.81 5.52-2.27 7.41-1.56s3.11 2.57 3.11 5.46zM57.44 162.8l-31.58 19v-.8c0-2.41 2-5.53 4.36-7l22.86-13.74c2.41-1.45 4.36-.67 4.36 1.74z"/><path class="cls-12" d="M46.35 162.9l-.87.52c-1.28.77-2.21.1-1.86-1.34.16-.72.07-1.38-.94-1.56a1.58 1.58 0 0 0-1.09.28 4.33 4.33 0 0 0-2 3.21 1.7 1.7 0 0 0 .06.44c.35 1-.58 2.81-1.86 3.58l-.87.52a3.83 3.83 0 0 0-1.79 2.87v.33l13-7.8v-.33c.01-.99-.79-1.31-1.78-.72zm-4.7.93c-.59.35-1.06.16-1.06-.42a2.26 2.26 0 0 1 1.06-1.69c.59-.35 1.06-.16 1.06.42a2.26 2.26 0 0 1-1.06 1.7z"/><path class="cls-7" d="M68 183.23v1.54a.54.54 0 0 1-.26.46l-10.56 6.56a.25.25 0 0 1-.38-.21v-1.48a.79.79 0 0 1 .38-.67L67.57 183a.29.29 0 0 1 .43.23z"/></g><path class="cls-15" d="M221.73 299.66l-42 25.31a4.83 4.83 0 0 1-5 0l-42.19-25.77a1.61 1.61 0 0 1 0-2.76l42.86-25.84a4.17 4.17 0 0 1 4.32 0l42 25.66a2 2 0 0 1 .01 3.4z"/><path class="cls-16" d="M222.68 286.58a2 2 0 0 0-.94-1.57l-42-25.66a4.16 4.16 0 0 0-4.32 0l-42.86 25.84a1.6 1.6 0 0 0-.78 1.4v7a1.58 1.58 0 0 0 .74 1.08l42.19 25.77a4.83 4.83 0 0 0 5 0l42-25.31a2 2 0 0 0 .95-1.83v-6.75z"/><path class="cls-11" d="M221.73 288.41l-42 25.31a4.83 4.83 0 0 1-5 0l-42.19-25.77a1.61 1.61 0 0 1 0-2.76l42.86-25.84a4.17 4.17 0 0 1 4.32 0l42 25.66a2 2 0 0 1 .01 3.4z"/><path class="cls-15" d="M329.41 371.14l-42 25.31a4.83 4.83 0 0 1-5 0l-42.19-25.77a1.61 1.61 0 0 1 0-2.76l42.86-25.84a4.16 4.16 0 0 1 4.32 0l42 25.66a2 2 0 0 1 .01 3.4z"/><path class="cls-16" d="M330.36 357.31a2 2 0 0 0-.94-1.57l-42-25.66a4.16 4.16 0 0 0-4.32 0l-42.86 25.82a1.6 1.6 0 0 0-.78 1.4v7a1.58 1.58 0 0 0 .74 1.08l42.19 25.77a4.83 4.83 0 0 0 5 0l42-25.31a2 2 0 0 0 .95-1.83v-6.75z"/><path class="cls-11" d="M329.41 359.14l-42 25.31a4.83 4.83 0 0 1-5 0l-42.19-25.77a1.61 1.61 0 0 1 0-2.76l42.86-25.84a4.16 4.16 0 0 1 4.32 0l42 25.66a2 2 0 0 1 .01 3.4z"/><path class="cls-17" d="M304.66 359v.08a.45.45 0 0 1 0 .1.33.33 0 0 0 0 .13c-.15.54-.78 2-3.17 2.37a4.29 4.29 0 0 1-.45.06h-.18a14.73 14.73 0 0 1-1.79 0l-.59-.06a14 14 0 0 1-5.64-3.07l-.17-.15v-.49s-1.72-1.14-2.34-1.52c-1.91-1.13-4.66-2.09-7.28-3.39a7.76 7.76 0 0 1-1.84-1.24l-.25-.25a1.57 1.57 0 0 1-.15-.15c-.06-.07-.1-.15-.15-.22l-.29-.42-.11-.21-.1-.2a1.21 1.21 0 0 1-.07-.21 3.42 3.42 0 0 1-.15-1v-1.72l16 6.54 8.73 3.26z"/><path class="cls-18" d="M295.15 347.11a63.31 63.31 0 0 1-7-.87c-4.36-.75-7.37-1-7.93.4s-.67 2.73 3.22 5.4 6.91 2.94 10 5.45a10.91 10.91 0 0 0 6.72 2.46c2.32.16 3.89-.73 4.4-1.68 1.18-2.2 0-6.37 0-6.37"/><path class="cls-17" d="M288.95 361.57v2.16a2 2 0 0 1-1.1 1.87 3 3 0 0 1-.94.27 33.07 33.07 0 0 1-6.86-.33v-.8l-5.84-.71a26 26 0 0 1-9-2.69 2 2 0 0 1-1-1.74V358l17.16 3z"/><path class="cls-18" d="M276.91 354a7 7 0 0 1-4.16 1.8c-2.25 0-6.63-.06-7.75.73a1.84 1.84 0 0 0-.88 1.4 2.85 2.85 0 0 0 .6 1.74c.84 1.24 6.52 3.09 10.78 3.43a62.94 62.94 0 0 1 6.52.62c2 .34 4.13.5 5.4-.13 2.2-1.09 2.35-4.42 1-6.61S276.91 354 276.91 354z"/><path class="cls-5" d="M286.82 207.38l-30 18-10.43-25.34a2.09 2.09 0 0 1 .85-2.59l26.81-16.14a1.62 1.62 0 0 1 2.34.77z"/><path class="cls-6" d="M285.46 206.89l-27.86 16.83-9.6-23.4c-.44-1.16-.42-1.68.79-2.39l25.72-15.54a.72.72 0 0 1 1 .34z"/><path class="cls-19" d="M259 202l-5.84 3.52a.3.3 0 0 1-.43-.14l-2.13-5.17a.3.3 0 0 1 .12-.37l5.84-3.52a.3.3 0 0 1 .43.14l2.13 5.17a.3.3 0 0 1-.12.37z"/><path class="cls-20" d="M267.58 196.86l-5.84 3.52a.3.3 0 0 1-.43-.14l-2.13-5.17a.3.3 0 0 1 .12-.37l5.84-3.52a.3.3 0 0 1 .43.14l2.13 5.17a.3.3 0 0 1-.12.37z"/><path class="cls-21" d="M271.45 209.4l-9.45 5.71a.48.48 0 0 1-.7-.23l-3.46-8.39a.48.48 0 0 1 .2-.6l9.48-5.71a.48.48 0 0 1 .7.23l3.46 8.39a.48.48 0 0 1-.23.6zM273.21 199.69L270 201.6a.16.16 0 0 1-.23-.08l-.07-.2a.16.16 0 0 1 .07-.2l3.16-1.9a.16.16 0 0 1 .23.08l.07.2a.16.16 0 0 1-.02.19zM270.71 202.59a.29.29 0 0 1-.41-.14l-.12-.35a.29.29 0 0 1 .12-.35l5.6-3.37a.29.29 0 0 1 .41.14l.12.35a.29.29 0 0 1-.12.35M276.73 200.23l-5.6 3.37a.29.29 0 0 1-.41-.14l-.12-.35a.29.29 0 0 1 .12-.35l5.6-3.37a.29.29 0 0 1 .41.14l.12.35a.29.29 0 0 1-.12.35zM277.15 201.24l-5.6 3.37a.29.29 0 0 1-.41-.14l-.12-.35a.29.29 0 0 1 .12-.35l5.6-3.37a.29.29 0 0 1 .41.14l.12.35a.29.29 0 0 1-.12.35z"/><path class="cls-20" d="M277.57 202.25l-5.6 3.37a.29.29 0 0 1-.41-.14l-.12-.35a.29.29 0 0 1 .12-.35l5.6-3.37a.29.29 0 0 1 .41.14l.12.35a.29.29 0 0 1-.12.35z"/><path class="cls-19" d="M278 203.26l-5.6 3.37a.29.29 0 0 1-.41-.14l-.12-.35a.29.29 0 0 1 .12-.35l5.6-3.37a.29.29 0 0 1 .41.14l.12.35a.29.29 0 0 1-.12.35z"/><path class="cls-21" d="M276.15 191.71l-5.84 3.52a.3.3 0 0 1-.43-.14l-2.13-5.17a.3.3 0 0 1 .12-.37l5.84-3.52a.3.3 0 0 1 .43.14l2.13 5.17a.3.3 0 0 1-.12.37z"/><path d="M286.4 198.56a9.48 9.48 0 0 1-2.18 1.62l-.38-.49a1.46 1.46 0 0 0-1-.55 4.57 4.57 0 0 1-2.67-1.11 14 14 0 0 1-1.54-2.47.78.78 0 0 0-.08-.16c-.15-.35-.46-1.06-.48-1.16a.25.25 0 0 1 .09-.21c.26-.14.65-.3.88-.16a7.06 7.06 0 0 1 1.14 1.29 3.34 3.34 0 0 0 1.39 1l.17.08s.34-.19.08-.82l-1.9-4.64c1.93.07 3.56 2.53 4.36 4.57a20.14 20.14 0 0 1 2.12 3.21z" fill="#f4d0ae"/><path class="cls-23" d="M259.49 221.56l-2.92 2.44-.55.46s-.67-2.8-1.85-3.86a7.59 7.59 0 0 0-2.26-1 1.81 1.81 0 0 1-1-.65 7.2 7.2 0 0 1-1-5.46 3.3 3.3 0 0 1 .38-1.23c.36-.62.81-.6.81-.6s2 1.4 2.54 1.82 1.07 1 1.53.52c.25-.26-1.19-2.08-1.59-2.91s.37-1.73.71-1.41a20.1 20.1 0 0 1 3.17 5 63.14 63.14 0 0 1 2.03 6.88z"/><path d="M257.24 221.91l-.67 2.08-.55.46s-.67-2.8-1.85-3.86a7.59 7.59 0 0 0-2.26-1 1.81 1.81 0 0 1-1-.65 7.2 7.2 0 0 1-1-5.46 3.3 3.3 0 0 1 .38-1.23s0 .51.83 1.23a20.31 20.31 0 0 0 2.57 1.73 7.76 7.76 0 0 1 2 3c.6 1.26 1.55 3.7 1.55 3.7z" fill="#e9c69e" opacity=".5"/><path class="cls-23" d="M300.21 195.07l.35.81-.53 2.68-8.54 4.3-.5-.07-1.37-.17-2.15-.28v-3a3.88 3.88 0 0 0-2.22-3.6h-.1a4.15 4.15 0 0 1-1.45-1l-.13-.13c-1.65-1.74-3.11-5.66-2.69-14.24A16.49 16.49 0 0 1 282 175c1.24-2.39 3.88-4 9.32-2.47 9.07 2.51 13 6.63 13.49 10.18s-4.6 12.36-4.6 12.36z"/><path class="cls-11" d="M284.15 200.91l-.43-1a15.24 15.24 0 0 0 2.47-1.83 8.48 8.48 0 0 1 .63.91 5.43 5.43 0 0 1-2.67 1.92z"/><path class="cls-25" d="M284.1 200.78a20.25 20.25 0 0 0 2.81-2.19s.74 1.21 1.35 2.29a8.14 8.14 0 0 1 .49 3.36l-2.83 1z"/><path d="M287.48 202.34v-3a3.88 3.88 0 0 0-2.22-3.6c.45.2 1.82.86 3.65 1.84.73.39.71 2.75.71 5z" fill="#e9c69e"/><path d="M255.47 224.39l-.51-1.63a1.28 1.28 0 0 1 .06-.94 7.66 7.66 0 0 1 1.34-2.06 2 2 0 0 1 2.44-.4 3.56 3.56 0 0 1 .63 1.23 4.13 4.13 0 0 1 .13 1.46c0 .11-1.08 1.6-1.2 1.73a28.07 28.07 0 0 1-2.89.61z" fill="#efefef"/><path class="cls-28" d="M309 276.2c-2 11-3.47 24.75-3.47 24.75s3.38 27.44-.42 51.34c-.17 1.13-.56 3.52-2 4.45a5.44 5.44 0 0 1-4.69 0l-.21-.11c-5.66-3.1-5.06-7.11-5.89-9.75 0-10.63 1.13-36.79-1.13-42.53l-2-23.18.74-16.57h20.28v.06l.1-.06S312 269 309 276.2z"/><path class="cls-29" d="M302.77 276.65c-1.91 6.28-4.37 22.67-4.88 26.67 0 0 1.88 31.57.28 53.27-5.66-3.1-5.06-7.11-5.89-9.75 0-10.63 1.13-36.79-1.13-42.53l-2-23.18.74-16.57h13.95a30.73 30.73 0 0 1-1.07 12.09z"/><path class="cls-28" d="M301.47 270a32.53 32.53 0 0 1-4.38 10.6 25.6 25.6 0 0 0-1.07 1.79c-.07.28-1.06 4-2.29 9s-2.72 11.23-3.78 16.54c.59 6.67 2.23 30-.91 50.25a3.71 3.71 0 0 1-2.66 3 6.66 6.66 0 0 1-2.23.24 5.61 5.61 0 0 1-1.87-.45c-3.32-1.4-5.72-6.71-5.72-6.71s-.08-33.59-1.83-42.41a39.27 39.27 0 0 1-.61-5.09c-.32-5.4-.91-15.25-1.09-19.36a169.11 169.11 0 0 1-.13-17.73l16.61.21z"/><path class="cls-29" d="M289.51 269.88l-.14 1.65A41.7 41.7 0 0 1 287.1 282c-2.12 6.28-4.22 21.16-4.45 26.74-.22 5.13 2.51 29.6 1.49 52.69a5.61 5.61 0 0 1-1.87-.45c-3.32-1.4-5.72-6.71-5.72-6.71s-.08-33.59-1.83-42.41a39.27 39.27 0 0 1-.61-5.09c-.32-5.4-.91-15.25-1.09-19.36a169.11 169.11 0 0 1-.13-17.73z"/><path d="M312.21 223.16c-2.68 8.13-4.18 21.5-2.57 27.08a101.1 101.1 0 0 1 2.57 13.49c-1.52 4.19-15.69 13.25-23.6 13.95a11.91 11.91 0 0 1-2.9-.11c-7-1-13.49-7.21-13.49-7.21s1.51-22.91 2.44-37.55a84.45 84.45 0 0 1 3-18.78 22.47 22.47 0 0 1 .75-2.2c.84-1.1 3.33-3 6.51-5.06h.07c2.13-1.42 4.56-2.93 7-4.37a134.6 134.6 0 0 1 9.15-5l.88-.42a20.84 20.84 0 0 1 4-1.65c3.72-.7 8.72 1.27 10.23 8s-1.38 11.67-4.04 19.83z" fill="#353535"/><path class="cls-25" d="M284.87 250.14c-.47 6.25.47 21.85.84 27.43-7-1-13.49-7.21-13.49-7.21s1.51-22.91 2.44-37.55a84.45 84.45 0 0 1 3-18.78l1.24-1.41h9.1s4.77 1 3 11.84-5.56 18.01-6.13 25.68zM302.07 200.34c-1.39 1.91-6.4 4.67-8.7 5.16a20.46 20.46 0 0 1-5.25.22 6.68 6.68 0 0 0-3.15 1h-.07l1.37-2.08 1.59-1s2.33-.85 2.85-1.09a5.89 5.89 0 0 1 1.3-.22c1.38-.17 3.36-.31 3.67-.35a44.27 44.27 0 0 0 4.18-2.62c.08-.06.8-1.23 1.3-2.06l.88-.42a2.66 2.66 0 0 1 .03 3.46z"/><path class="cls-32" d="M307.19 183c-.78 4.66-4.73 12-6.72 12.65a11.68 11.68 0 0 1-3.29.63 3.14 3.14 0 0 1-3.24-2.57 15 15 0 0 0-1.35-4.21c-1.4-2.58-3.22-3.93-4.14-3.45s-.82 2.13-.82 2.13H287l-.14-1.24c-.08-.71-.14-1.59-.18-2.27a7.91 7.91 0 0 0-1.6-4.83 19.1 19.1 0 0 1-2.23-4.12 7.54 7.54 0 0 1-.56-3.68c.38-3.59 1.84-5.05 3.22-6.07 4.51-3.3 13.95 2.83 17.44 5.76a12 12 0 0 1 3.91 5.55 12 12 0 0 1 .33 5.72z"/><path class="cls-11" d="M301.42 196.69l-.86-.8a20.08 20.08 0 0 1-13.08 6.45 11.15 11.15 0 0 0-2.62 4.44L286 206a5.31 5.31 0 0 1 2.06-.8c.47-.07 1.5-.12 1.5-.12 4.66-.06 9.29-3.32 11.72-5.33a2 2 0 0 0 .14-3.06z"/><path class="cls-34" d="M280.34 351.29a2.33 2.33 0 0 0 .29.42 2.9 2.9 0 0 1-.29-.42zM280.78 351.93c-.06-.07-.1-.15-.15-.22.09.12.18.24.31.37a1.57 1.57 0 0 1-.16-.15z"/><path class="cls-28" d="M289.05 220.22c-.88 5.13-10.67 20.07-11.08 20.67a72.09 72.09 0 0 1-4.9 7c-1.3 1.62-2.37 2.66-3 2.86a3.21 3.21 0 0 1-.39.1 5.27 5.27 0 0 1-6.18-3.45 108.43 108.43 0 0 1-5.11-11.16 103.64 103.64 0 0 1-2.92-11.36 3.43 3.43 0 0 1 .35-2.51c0-.06.07-.13.11-.18.54-.91 1.3-1.93 2-2 1.23-.18 1.46.14 1.46.14l4 6.4a52.73 52.73 0 0 1 3.56 7.53l.28.75c3.24-7.52 7.46-16.75 9.18-20.62a7 7 0 0 1 11.59-1.77 1.46 1.46 0 0 0 .14.17 2.79 2.79 0 0 1 .46.93c.26.22 1.28 1.7.45 6.5z"/><path class="cls-18" d="M307.19 183c-.78 4.66-4.73 12-6.72 12.65a11.68 11.68 0 0 1-3.29.63 3.14 3.14 0 0 1-3.24-2.57 15 15 0 0 0-1.35-4.21c-1.4-2.58-3.22-3.93-4.14-3.45s-.82 2.13-.82 2.13H287l-.14-1.24c-.08-.71-.14-1.59-.18-2.27a7.91 7.91 0 0 0-1.6-4.83 19.1 19.1 0 0 1-2.23-4.12 7.54 7.54 0 0 1-.56-3.68A20.61 20.61 0 0 0 297 184.15c11 2.3 9.93-6.4 9.86-6.85a12 12 0 0 1 .33 5.7z"/><path d="M266.32 239.51s-.6-3.81.6-5.29l.28.75a10.16 10.16 0 0 0-.88 4.54z" fill="#141414"/><path class="cls-29" d="M288.69 213.73s.33 4.28-3.72 11.42-12.71 24.24-17 23.77c-2.25-.25-3-3.82-3.95-4.46-1.95-1.39-3.26-6.35-5.12-11.29a82.5 82.5 0 0 1-3-11c0 .06-.07.13-.11.18a3.43 3.43 0 0 0-.35 2.51 103.64 103.64 0 0 0 2.92 11.36 108.43 108.43 0 0 0 5.11 11.16 5.27 5.27 0 0 0 6.18 3.43 3.21 3.21 0 0 0 .39-.1c.67-.2 1.74-1.24 3-2.86a72.09 72.09 0 0 0 4.9-7c.4-.6 10.2-15.54 11.08-20.67.86-4.76-.16-6.24-.33-6.45z"/><path class="cls-15" d="M122.75 312.08l27.44 16.78 5.78-3.49-27.44-16.78-5.78 3.49z"/><path class="cls-5" d="M155.97 299.32v22.86l-5.78 3.48v-22.85l5.78-3.49z"/><path class="cls-36" d="M128.53 282.55v22.85l-5.78 3.48v-22.84l5.78-3.49z"/><path class="cls-5" d="M155.97 299.32v22.86l-5.78 3.48v-22.85l5.78-3.49z"/><path class="cls-4" d="M122.75 286.04l27.44 16.77 5.78-3.49-27.44-16.77-5.78 3.49z"/><path class="cls-36" d="M150.2 325.66l-27.45-16.78v-22.84l27.45 16.77v22.85z"/><path class="cls-5" d="M122.75 286.04l13.72 19.81 13.72-3.04-27.44-16.77z"/><path d="M145 291.06v4.5a.74.74 0 0 1-.49.7.75.75 0 0 1-.26.05.74.74 0 0 1-.75-.75v-4.5a1.24 1.24 0 0 0-.59-1.05l-6.87-4.2a.47.47 0 0 0-.5 0l-.1.07a.5.5 0 0 0-.12.34v3.4a.75.75 0 0 1-.47.69.67.67 0 0 1-.28.06.75.75 0 0 1-.75-.75v-3.4a2 2 0 0 1 1-1.74 1.56 1.56 0 0 1 .49-.19 1.91 1.91 0 0 1 1.52.23l6.87 4.2a2.73 2.73 0 0 1 1.3 2.34z" fill="#82441d"/><path fill="#f7aa57" d="M138.03 305.04v2.34l-.52.31v-2.34l.52-.31z"/><path fill="#f4b77a" d="M134.71 303.64l2.8 1.71.52-.31-2.81-1.71-.51.31z"/><path fill="#eca140" d="M137.51 307.69l-2.8-1.71v-2.34l2.8 1.71v2.34z"/><path class="cls-41" d="M145 291.06v4.5a.74.74 0 0 1-.49.7v-4.51a3.08 3.08 0 0 0-.67-2.25l-8.54-5.2a1.91 1.91 0 0 1 1.52.23l6.87 4.2a2.73 2.73 0 0 1 1.31 2.33zM135.38 285.89a.5.5 0 0 0-.12.34v3.4a.75.75 0 0 1-.47.69v-3.46a1.16 1.16 0 0 1 .59-.97z"/><path class="cls-17" d="M158.6 288.62s.44 1.73.69 3.19.33 3.33.49 4.87a20.92 20.92 0 0 0 2.27 6.14 6 6 0 0 0 3.23 2.3 10.43 10.43 0 0 0 5-.1 2.4 2.4 0 0 0 1.27-1.27M196.65 283c0 1-1.43 1.63-2.9 1.75a14.7 14.7 0 0 1-4.76-.67 23.65 23.65 0 0 1-3.69-1.39 4.75 4.75 0 0 0-2.71-.24v.34a12.47 12.47 0 0 1-6.61-1.11v-1.41c0-.65.13-1.38.13-1.38l20.55 3.43z"/><path class="cls-42" d="M172.1 302.1c0 .18-.05.36-.08.53a2.58 2.58 0 0 1-1.77 2.08c-1.93.66-5.5.31-7.26-1.6s-3-6.83-3-9.77a13.09 13.09 0 0 0-1.54-5.66h8a2 2 0 0 1 .19.26c1.38 1.93 5 9.27 5.32 11.64a11.27 11.27 0 0 1 .14 2.52z"/><path class="cls-43" d="M172.1 302.1a.4.4 0 0 1-.08-.2c-.35-1.91-2.18-5.59-3.15-7.53s-2.78-5.47-2.78-5.47l.54-1c1.38 1.93 5 9.27 5.32 11.64a11.27 11.27 0 0 1 .15 2.56z"/><path class="cls-44" d="M172 302.63a2.58 2.58 0 0 1-1.77 2.08c-1.93.66-5.5.31-7.26-1.6s-3-6.83-3-9.77a13.09 13.09 0 0 0-1.54-5.66h3.25l.26 1.69s.09 6.83 1.71 10.21a6.54 6.54 0 0 0 5.88 4c1.29-.09 2.11-.26 2.47-.94z"/><path class="cls-42" d="M196.65 282.66a1.27 1.27 0 0 1-.72 1c-1.34.61-4.15.41-5.86 0s-4.89-1.92-6.57-2.1-5-.47-5.77-.7a2.33 2.33 0 0 1-1.86-2.27 5.09 5.09 0 0 1 .62-2.89l1.32.08 7.78.5h.18l4 1.42c1.27.44 3.92.85 5.66 2.47a5.34 5.34 0 0 1 .7.78 2.39 2.39 0 0 1 .52 1.71z"/><path class="cls-43" d="M196.1 281c-1.27-1.09-3.93-1.9-6.1-2.46s-4.32-1.25-4.32-1.25 0-.42-.09-1h.18l4 1.42c1.27.44 3.92.85 5.66 2.47a5.34 5.34 0 0 1 .67.82z"/><path class="cls-44" d="M196.65 282.66a1.27 1.27 0 0 1-.72 1c-1.34.61-4.15.41-5.86 0s-4.89-1.92-6.57-2.1-4.95-.47-5.77-.7a2.33 2.33 0 0 1-1.86-2.27 5.09 5.09 0 0 1 .62-2.89l1.32.08v.42s-1.22 1.69-.41 3 3.84 1.09 5.69 1.31 4.5 1.72 7.06 2.16 5.63.81 6.53 0z"/><path class="cls-28" d="M190.67 233.85a61.5 61.5 0 0 0-.8 3.79.32.32 0 0 0 0 .07c-.21 1.2-.38 2.35-.54 3.43v.11c0 .04 0 .31-.09.59s-.08.55-.12.81c-.34 2.21-1 6.77-1.5 13a.66.66 0 0 0 0 .14 161.9 161.9 0 0 0-.57 7.81c0 .68-.08 1.37-.11 2.07-.19 3.87-.34 7.82-.43 10.71a2 2 0 0 1-1.07 1.72 3.63 3.63 0 0 1-1.69.45 12.21 12.21 0 0 1-4.16-.55 8.82 8.82 0 0 1-2.34-1.19 2.22 2.22 0 0 1-.89-1.87c.07-2.45.22-8.94 0-15.43-.32-8.23-1-23.72-1-23.72l2.9-26 5.39-1.2c-.28-1.51-.58-3.24-.79-4.46l-.27-1.58h10.51v.44c.15 2.77.7 18.31-2.43 30.86z"/><path d="M190.67 233.85a61.5 61.5 0 0 0-.8 3.79c.1-.89 1.07-9.47 1.51-13.85.46-4.63-.29-19.09-.29-19.09l2-1.71c.16 2.77.71 18.31-2.42 30.86z" fill="#595959" opacity=".5"/><path class="cls-29" d="M186.07 206.56a161.65 161.65 0 0 1-3.86 30.35c-2.19 9.3-2.64 27.84-2.66 41.06a8.82 8.82 0 0 1-2.34-1.19 2.22 2.22 0 0 1-.89-1.87c.07-2.45.22-8.94 0-15.43-.32-8.23-1-23.72-1-23.72l2.9-26 5.39-1.2c-.28-1.51-.58-3.24-.79-4.46z"/><path class="cls-28" d="M181.5 207.86a118.35 118.35 0 0 1-6.19 39.47c-1.32 3.3-2.34 6-2.62 7.1-.59 2.33-3.26 25.72-3.9 31.37a6.11 6.11 0 0 1-.89 2.59A4.87 4.87 0 0 1 163 291a11.64 11.64 0 0 1-2.13-.42 15.69 15.69 0 0 1-2.72-1.1 2 2 0 0 1-1.12-1.89c.18-6.05 1-32.59 1.47-35.9.56-3.74 2.86-11.9 3.94-26.87a16.14 16.14 0 0 0-.67-6.41 17.16 17.16 0 0 1-.17-10.41l1.57.59c0-1.42-.09-2.06-.09-2.06h.51l18.47.39z"/><path class="cls-29" d="M169.54 219.06c.55 5.26-5.45 28.63-6.08 34.63s-2.58 36.93-2.58 36.93a15.69 15.69 0 0 1-2.72-1.1 2 2 0 0 1-1.12-1.89c.18-6.05 1-32.59 1.47-35.9.56-3.74 2.86-11.9 3.94-26.87a16.14 16.14 0 0 0-.67-6.41 17.16 17.16 0 0 1-.18-10.45l1.57.59c0-1.42-.09-2.06-.09-2.06h.51c3.35 1.85 6.19 3.62 6.19 3.62a31.19 31.19 0 0 0-.24 8.91z"/><path d="M161.49 207.56a11.35 11.35 0 0 0-.29 1.44.7.7 0 0 0 .29.69 20.26 20.26 0 0 0 4 1.9 20.62 20.62 0 0 0 8.49.9c1-.1 11.24-2.35 17.34-6.2a4.57 4.57 0 0 0 2-4.61c-.19-1.25-31.83 5.88-31.83 5.88z" fill="#845424"/><path class="cls-11" d="M200.76 177.07a11 11 0 0 1-1.29.9l-.14.09a23.22 23.22 0 0 1-7.41 2.41l-.1 3.4a37.37 37.37 0 0 0 .55 7.57c.37 2.12.82 4.72 1.11 6.6.58 3.73-.43 6.44-2.29 7.55a50.78 50.78 0 0 1-16.6 6.09 17.92 17.92 0 0 1-1.79.24 15.5 15.5 0 0 1-3.85-.16 12.44 12.44 0 0 1-1.56-.34l-.48-.15a6.77 6.77 0 0 1-1.61-.74c-2.44-1.55-2.63-2.73-2.8-4.12-.14-1.2 1.45-7.22 1.71-9.24l.11-.82.06-.46a12 12 0 0 0 0-2.05.42.42 0 0 0 0-.07 5.41 5.41 0 0 0-.23-1.28c0-.12-.08-.24-.13-.37s0-.09 0-.14c-2.43-1.1-4.54-4-6.88-9.3-2.27-5.17-2-16-1.28-20.31a9.28 9.28 0 0 1 .34-1.45 10.91 10.91 0 0 1 3-3.75 34.91 34.91 0 0 1 4.1-3.12l.14-.09a31.88 31.88 0 0 1 3.14-1.82 52.28 52.28 0 0 1 6.41-2.62c1.31-.4 2.65-.73 4-1 2.09-.44 4.21-.78 6.24-1.17h1.05a14.88 14.88 0 0 1 12.13 8.31c1.93 3.84 4.62 9.68 5.19 13.5.66 4.67.34 6.72-.84 7.91z"/><path class="cls-47" d="M187.69 180.52a40.27 40.27 0 0 1-11.33 7.59 25.48 25.48 0 0 1-10.11 1.89 4.21 4.21 0 0 1-2.06-.18c-1.42-.66-3.52-3-5.52-9.28-1.66-5.2-1.14-13.9-.24-19.37a11.7 11.7 0 0 1 7.91-5.93 9.88 9.88 0 0 0 5.46-.2 6.51 6.51 0 0 1 4.54.15 33.11 33.11 0 0 0 3.53 1.25l1.33 1 .9 14.23 1.54-3.57-1.18-12.1-4.53-5.79-5-.6c-.71.22-1.41.46-2.09.73a39.83 39.83 0 0 0-6 2.79l-.13.08-.48.29-.54.34-.34.21-.14.09a34.91 34.91 0 0 0-4.1 3.12 10.91 10.91 0 0 0-3 3.75c0 .07-.05.16-.08.25a11.17 11.17 0 0 0-.26 1.2c-.73 4.3-1 15.13 1.27 20.3 2.34 5.33 4.45 8.2 6.88 9.3 0 0 12.77 1.78 24.2-11.47z"/><path d="M171.88 142.74v5.62s5.75 4.15 8.81 3.55c1.31-.26 2-1.94 1.73-4.32l-2.78-.56z" fill="#edcdab"/><path class="cls-11" d="M181.37 151.59l2.28 3.06s1.11-3.83-1.07-6.18-2.22-.31-2.22-.31 2.02 2.32 1.01 3.43z"/><path class="cls-23" d="M187.76 135.26a32.51 32.51 0 0 1-.5 9c-1 4.3-1.27 5.28-3 6s-3.3.85-6.21-1a14.66 14.66 0 0 1-4.51-4.93s-.42.27-1.46-.9a6.29 6.29 0 0 1-1.94-5.26 17.42 17.42 0 0 1 2.57-8.9c1.94-3.26 7.91-2.22 10.62-.83s3.92 4.03 4.43 6.82z"/><path class="cls-32" d="M190.12 135.47c-3 5.27-10.41 1.8-10.41 1.8-.55 2.29-2.15 2.5-2.92 2.92s-.93 2.64-.93 2.64h-.7a16 16 0 0 0-.38-3.34 2 2 0 0 0-3.47-.34c-.94 1.46.14 3.09.76 4.3a5.51 5.51 0 0 1-.19 2.72 9.14 9.14 0 0 1-1.89-3.41 23.61 23.61 0 0 1 0-12.22 5.56 5.56 0 0 1 .61-1.48c2.28-3.85 8.78-4.6 11.33-3.73 2.2.75 7.65 3.23 8.67 6.75a4.29 4.29 0 0 1-.48 3.39z"/><path class="cls-28" d="M190.34 240.54l-.12.81q.06-.48.12-.81zM190.45 239.84v0z"/><path class="cls-49" d="M167.34 174.33a35.66 35.66 0 0 1-1-8c.17-3.17 1.92-.33 2.08 2.25a61.08 61.08 0 0 0 1.69 8.17"/><path class="cls-11" d="M171.88 147.79a5.4 5.4 0 0 0-.62 1.16 11.47 11.47 0 0 0-.4 1.31 22 22 0 0 0 9.51 5.66v-4s-5.63-.73-8.49-4.13z"/><path class="cls-23" d="M175.93 178s-2.37-.24-6.84 1.67a26.91 26.91 0 0 1-1.75-5.36.76.76 0 0 1 .09-.18c1.25-2 8-.75 8-.75zM191.34 170.36c-1.32 0-3.08.24-4.65.45.12-.38.27-5.16 3.86-5.58.3 1.55.51 2.95.64 3.9 0 .22 0 .41.07.58s0 .3.05.41.03.24.03.24z"/><path class="cls-16" d="M191.87 180.49a23.93 23.93 0 0 1-1.6 2.1 42.54 42.54 0 0 1-8.07 7.4c-1 .7-2 1.39-3.18 2l-.2.12a18.31 18.31 0 0 0-9 14.11 13.36 13.36 0 0 0 0 3.91c.46 1.25 2 1.65 2.95 1.78a15.5 15.5 0 0 1-3.85-.16 12.44 12.44 0 0 1-1.56-.34l-.48-.15a6.82 6.82 0 0 1-1.62-.75c-2.43-1.55-2.62-2.73-2.79-4.11-.14-1.2 1.45-7.22 1.71-9.24l.11-.82a12.31 12.31 0 0 0 .11-2.51.42.42 0 0 0 0-.07 5.41 5.41 0 0 0-.23-1.28c0-.12-.08-.24-.13-.37s0-.09 0-.14 7.92 1.1 16.87-4.91a36.37 36.37 0 0 0 7.33-6.56h.34a24.1 24.1 0 0 0 3.29-.01z"/><path class="cls-16" d="M164.32 195.71s-3.57 9.74-3.44 12.24 8 3.87 8 3.87l-3.37-9z"/><path class="cls-49" d="M187.88 157.32s.5-.62 1.57.81 4.87 10.38 4.94 12.31-11.44.94-11.44.94a82.64 82.64 0 0 1 8.4-1s-1.03-9.75-3.47-13.06z"/><path class="cls-47" d="M169.09 179.69s-1.23 1.42-1 2.25 1.63-.46 4.67-1.13 11.79-.54 11.79-.54-7.06-1.56-8.52-1.48l-.11-.78a13.79 13.79 0 0 0-6.83 1.68z"/><path class="cls-28" d="M180.41 152v4l1.37 1.26 1.92-.61v-1.92l-2.28-3.06a1.62 1.62 0 0 1-1.01.33z"/><path class="cls-28" d="M182.11 171.59c-.16-7.8-.38-14.41-.38-14.41l1.92-.62c.64 2.93 1.54 8.48 2.41 14.34 0 0-1.63.26-3.95.69zM188.85 192.52l-1.95 5.11a.42.42 0 0 1-.67.18l-3.63-3a1.5 1.5 0 0 1-.54-1.24c.06-1 .11-2.2.14-3.57v-3.94c.24-.18.48-.36.72-.56l.67-.55c.45-.38.94-.81 1.46-1.28l.84-.8.48-.47.8-.84.32-.34.53 3.81.88 6.6a1.83 1.83 0 0 1-.05.89z"/><path d="M188.07 185a42.94 42.94 0 0 1-5.87 5v-3.94c.24-.18.48-.36.72-.56 1-.89 2-1.64 3-2.63.16-.14.32-.31.48-.47l.8-.84.32-.34c.21 1.34.39 2.62.55 3.78z" style="mix-blend-mode:color-burn" fill="#ededed"/><path class="cls-18" d="M190.12 135.47c-3 5.27-10.41 1.8-10.41 1.8-.55 2.29-2.15 2.5-2.92 2.92s-.93 2.64-.93 2.64h-.7a16 16 0 0 0-.38-3.34 2 2 0 0 0-3.47-.34c-.94 1.46.14 3.09.76 4.3a5.51 5.51 0 0 1-.19 2.72 9.14 9.14 0 0 1-1.89-3.41 23.61 23.61 0 0 1 0-12.22 5.56 5.56 0 0 1 .61-1.48 36.45 36.45 0 0 0 8.6 5.56c4.67 2 8.29 1.54 9.46.54a4.54 4.54 0 0 0 1.93-3.07 4.29 4.29 0 0 1-.47 3.38zM87.14 207l.12-.81-.12.81zM87.35 205.62v-.11.11z"/><path class="cls-15" d="M265.95 402a.25.25 0 0 0 0-.44l-17.49-10.76-.11-.07h-.09a1.79 1.79 0 0 0-.54-.14 1.93 1.93 0 0 0-1 .2L244 389a5.55 5.55 0 0 0 2.3-4.09l.07-2.2c.12-4.06-5.4-7.52-12.33-7.73s-12.56 2.88-12.76 6.91v.1l-.07 2.18v.35c.19 3.92 5.6 7.19 12.33 7.39a18.74 18.74 0 0 0 7.72-1.32 1 1 0 0 0 .13.14l.17.11 3.51 2.19a2.55 2.55 0 0 0 .13 1.09 1.77 1.77 0 0 0 .58.79 1.32 1.32 0 0 0 .3.19l15 9.2a.93.93 0 0 0 1 0zm-32.36-13.42c-5.83-.17-10.47-3.08-10.38-6.51a5.82 5.82 0 0 1 1.27-2.15 3.75 3.75 0 0 0-.84 2.21 3.68 3.68 0 0 0 0 .57v.13a2.87 2.87 0 0 0 .1.41l.06.17a2.44 2.44 0 0 0 .15.36l.08.17.22.37.1.13a5.86 5.86 0 0 0 .37.48l.12.12.32.33a3 3 0 0 0 .27.22 1 1 0 0 0 .15.13 11.09 11.09 0 0 0 3.45 1.78 16.47 16.47 0 0 0 4.56.76c5.61.16 10.25-2.32 10.35-5.55.06-2-1.72-3.9-4.45-5l-.13-.06a23.3 23.3 0 0 0-.89-.32 8.91 8.91 0 0 1 5.58 3.94 3.73 3.73 0 0 1 .24 1.41c-.05 3.44-4.86 6.08-10.7 5.91z"/><path class="cls-51" d="M246.57 376.86l-3-3.08-8.57-2.12-8.67 1.61-3.14 2.9-.82 1.81 1.24.43s1.46-5.89 11.36-5.6 11 6.26 11 6.26l1.26-.36z"/><path class="cls-16" d="M247.28 379.43a7.47 7.47 0 0 0-2.49-3 4.31 4.31 0 0 1 .86 2.63c-.1 3.56-5.11 6.3-11.19 6.13s-10.91-3.21-10.81-6.77a4.31 4.31 0 0 1 1-2.58 7.25 7.25 0 0 0-2.78 3.12l-.3-.7-.07 2.39v.35c.19 4.08 5.82 7.5 12.84 7.7 7.22.21 13.18-3 13.3-7.28l.07-2.29z"/><path d="M234.88 371.07c-7.22-.21-13.18 3-13.3 7.28a4.63 4.63 0 0 0 .11 1.15c.83 3.72 6.18 6.71 12.74 6.9s12.07-2.48 13.12-6.14a4.63 4.63 0 0 0 .18-1.14c.12-4.23-5.63-7.84-12.85-8.05zm-.42 14.12c-6.07-.18-10.91-3.21-10.81-6.77a4.31 4.31 0 0 1 1-2.58c1.77-2.21 5.68-3.68 10.18-3.55s8.31 1.83 10 4.14a4.31 4.31 0 0 1 .86 2.63c-.14 3.56-5.15 6.31-11.23 6.13z" fill="#81c5e8"/><path class="cls-11" d="M234.88 371.07c-7.22-.21-13.18 3-13.3 7.28a4.63 4.63 0 0 0 .11 1.15c.83 3.72 6.18 6.71 12.74 6.9s12.07-2.48 13.12-6.14a4.63 4.63 0 0 0 .18-1.14c.12-4.23-5.63-7.84-12.85-8.05zm-.42 14.12c-6.07-.18-10.91-3.21-10.81-6.77a4.31 4.31 0 0 1 1-2.58c1.77-2.21 5.68-3.68 10.18-3.55s8.31 1.83 10 4.14a4.31 4.31 0 0 1 .86 2.63c-.14 3.56-5.15 6.31-11.23 6.13z"/><path class="cls-16" d="M249.3 388.19l-.25.37-1.12 1.66-.29.43-4.91-3.07a.89.89 0 0 1-.18-.11 1.07 1.07 0 0 1-.34-.47 1.32 1.32 0 0 1-.08-.3 1.73 1.73 0 0 1 .16-1 1.66 1.66 0 0 1 .84-.83 1.13 1.13 0 0 1 .56-.09.94.94 0 0 1 .32.09H244.13z"/><path class="cls-11" d="M249.3 388.19l-.25.37-5.91-3.67a1.13 1.13 0 0 1 .56-.09.94.94 0 0 1 .32.09H244.14z"/><path class="cls-51" d="M247.92 390.22l-.29.43-4.91-3.07a.89.89 0 0 1-.18-.11 1.07 1.07 0 0 1-.34-.47 1.32 1.32 0 0 1-.08-.3z"/><path d="M264.94 396.77l-.71 1.26-1.83 3.23-15-9.24a1.54 1.54 0 0 1-.31-.19 1.84 1.84 0 0 1-.59-.82 2.86 2.86 0 0 1 .15-2.22 3.18 3.18 0 0 1 .5-.76 2.33 2.33 0 0 1 1.93-.84 1.61 1.61 0 0 1 .56.15h.09l.12.07z" fill="#394356"/><path d="M264.94 396.77l-.71 1.26-1.8-.54-15.25-9.49a2.33 2.33 0 0 1 1.93-.84 1.61 1.61 0 0 1 .56.15h.09l.12.07z" fill="#485366"/><path d="M265.69 400a2.38 2.38 0 0 1-3 1.45 1.55 1.55 0 0 1-.31-.19 1.86 1.86 0 0 1-.59-.82 2.86 2.86 0 0 1 .15-2.22 2.57 2.57 0 0 1 2.44-1.6 1.63 1.63 0 0 1 .56.15h.09l.12.07a2.48 2.48 0 0 1 .54 3.16z" fill="#6a7384"/><ellipse class="cls-56" cx="234.7" cy="378.79" rx="6.09" ry="10.6" transform="rotate(-88.31 234.72 378.8)"/><path class="cls-56" d="M240.67 373.87c-10.56.23-13.61 5.44-14.49 8.38a4.74 4.74 0 0 1-2.08-3.77c.1-3.36 4.93-5.95 10.78-5.78a16.71 16.71 0 0 1 5.79 1.17z"/><path d="M244.74 379.08c-.09 3.19-4.67 5.64-10.22 5.48s-10-2.88-9.88-6.07v-.28c.31 3 4.57 5.46 9.86 5.62s9.85-2.14 10.2-5.19a2.63 2.63 0 0 1 .04.44z" opacity=".4" fill="#fff"/><path d="M244.81 96.85v29.82a2.44 2.44 0 0 1-1.05 2l-.09.06-9.75 6-20.13 12.4a.94.94 0 0 1-1.05 0l-3.95-2.43a1.15 1.15 0 0 1-.56-1v-28.81a3.21 3.21 0 0 1 1.54-2.76l29.58-18.25a1.21 1.21 0 0 1 1.25 0l3.75 2.28.13.07a.75.75 0 0 1 .33.62z" fill="#ffd05a"/><path class="cls-9" d="M244.81 96.85v29.82a2.44 2.44 0 0 1-1.05 2l-.09.06-9.75 6-20.13 12.4a.94.94 0 0 1-1.05 0 1 1 0 0 1-.45-.82v-29.04a3.08 3.08 0 0 1 1.44-2.6l30-18.46a.72.72 0 0 1 .67-.06l.13.07a.75.75 0 0 1 .28.63z"/><path class="cls-11" d="M230 115.41l2 3a.45.45 0 0 0 .54.17l4.32-1.67a.45.45 0 0 1 .54.67l-3.4 5.18a.45.45 0 0 0-.07.34l.89 4.71a.45.45 0 0 1-.44.54h-4.62a.45.45 0 0 0-.33.14l-4.25 4.51a.45.45 0 0 1-.78-.38l.74-4.72a.45.45 0 0 0-.26-.49l-3.27-1.45a.45.45 0 0 1-.07-.79l5.2-3.52a.45.45 0 0 0 .17-.21l2.31-5.92a.45.45 0 0 1 .78-.11z"/><path d="M106.52 217.72v20.1a1.65 1.65 0 0 1-.71 1.36h-.06l-6.57 4.05-13.57 8.36a.63.63 0 0 1-.71 0L82.24 250a.78.78 0 0 1-.38-.67v-19.45a2.16 2.16 0 0 1 1-1.86l19.94-12.3a.82.82 0 0 1 .84 0l2.53 1.54.09.05a.51.51 0 0 1 .26.41z" fill="#73aae0"/><path d="M106.52 217.72v20.1a1.65 1.65 0 0 1-.71 1.36h-.06l-6.57 4.05-13.57 8.36a.63.63 0 0 1-.71 0 .66.66 0 0 1-.3-.55v-19.56a2.08 2.08 0 0 1 1-1.75l20.19-12.44a.49.49 0 0 1 .45 0l.09.05a.51.51 0 0 1 .19.38z" fill="#acd3ff"/><path class="cls-11" d="M98.64 229.12a6.15 6.15 0 0 1-2.88 4.61c-1.59 1-2.88.44-2.88-1.15a6.15 6.15 0 0 1 2.88-4.58c1.59-1 2.88-.47 2.88 1.12zM102.28 237l-13 7.83c0-3.59 2.91-8.24 6.51-10.4 1.79-1.08 3.43-1.33 4.61-.86s1.88 1.66 1.88 3.43z"/><path d="M106.52 285.22v20.1a1.65 1.65 0 0 1-.71 1.36h-.06l-6.57 4.05-13.57 8.36a.63.63 0 0 1-.71 0l-2.66-1.64a.78.78 0 0 1-.38-.67v-19.4a2.16 2.16 0 0 1 1-1.86l19.94-12.3a.82.82 0 0 1 .84 0l2.53 1.54h.09a.51.51 0 0 1 .26.46z" fill="#779a0a"/><path d="M106.52 285.22v20.1a1.65 1.65 0 0 1-.71 1.36h-.06l-6.57 4.05-13.57 8.36a.63.63 0 0 1-.71 0 .66.66 0 0 1-.3-.55V299a2.08 2.08 0 0 1 1-1.75l20.19-12.44a.49.49 0 0 1 .45 0h.09a.51.51 0 0 1 .19.41z" fill="#c3d600"/><path d="M79 275.93V296a1.65 1.65 0 0 1-.71 1.36h-.06l-6.57 4.05-13.57 8.36a.63.63 0 0 1-.71 0 .66.66 0 0 1-.3-.55v-19.53a2.08 2.08 0 0 1 1-1.75l20.13-12.44a.49.49 0 0 1 .45 0h.09a.51.51 0 0 1 .25.43z" opacity=".3" fill="#c3d600"/><path class="cls-11" d="M102.6 293.22v1.4l-6.51 7.64-6.53.5v-1.39l13.04-8.15z"/><path class="cls-11" d="M96.09 303.07l6.51-7.64v7.13l-13.04 8.15v-7.14l6.53-.5z"/><path d="M67.16 121.67v20.1a1.65 1.65 0 0 1-.71 1.36h-.06l-6.57 4.05-13.57 8.36a.63.63 0 0 1-.71 0l-2.66-1.64a.78.78 0 0 1-.38-.67v-19.4a2.16 2.16 0 0 1 1-1.86l19.94-12.3a.82.82 0 0 1 .84 0l2.53 1.54h.09a.51.51 0 0 1 .26.46z" fill="#8ba6fc"/><path d="M67.16 121.67v20.1a1.65 1.65 0 0 1-.71 1.36h-.06l-6.57 4.05-13.57 8.36a.63.63 0 0 1-.71 0 .66.66 0 0 1-.3-.55v-19.56a2.08 2.08 0 0 1 1-1.75l20.16-12.44a.49.49 0 0 1 .45 0h.09a.51.51 0 0 1 .22.43z" fill="#c9d4fe"/><path class="cls-66" d="M85.36 88.4v14.06a1.15 1.15 0 0 1-.5 1l-4.6 2.83-9.49 5.85a.44.44 0 0 1-.5 0 .46.46 0 0 1-.21-.38V98a1.45 1.45 0 0 1 .68-1.22l14.12-8.7a.34.34 0 0 1 .31 0h.06a.35.35 0 0 1 .13.32zM184.81 27.21v14.06a1.15 1.15 0 0 1-.5 1l-4.6 2.83-9.49 5.85a.44.44 0 0 1-.5 0 .46.46 0 0 1-.21-.38V36.84a1.45 1.45 0 0 1 .68-1.22l14.12-8.7a.34.34 0 0 1 .31 0h.06a.35.35 0 0 1 .13.29z"/><path class="cls-67" d="M213.91.53v21a1.72 1.72 0 0 1-.74 1.42h-.06l-6.87 4.24L192 36a.66.66 0 0 1-.74 0 .69.69 0 0 1-.31-.58V14.93a2.17 2.17 0 0 1 1-1.83l21.13-13a.51.51 0 0 1 .47 0l.09.05a.53.53 0 0 1 .27.38zM68.52 296.89v21a1.72 1.72 0 0 1-.74 1.42h-.06l-6.87 4.24-14.2 8.75a.66.66 0 0 1-.74 0 .69.69 0 0 1-.31-.58v-20.5a2.17 2.17 0 0 1 1-1.83l21.13-13a.51.51 0 0 1 .47 0l.09.05a.53.53 0 0 1 .23.45z"/><path class="cls-11" d="M55.56 147l-5.87-2.34c-.55-.22-.55-1.12 0-2s1.45-1.42 2-1.2l3.31 1.29 6.54-14.51a2.6 2.6 0 0 1 1.95-1.63c.67 0 .87.76.46 1.67z"/><path class="cls-56" d="M236.72 5.68v24a2 2 0 0 1-.85 1.62h-.07l-7.8 4.85-16.18 10a.75.75 0 0 1-.85 0 .78.78 0 0 1-.36-.66v-23.4a2.48 2.48 0 0 1 1.13-2.09l24.07-14.83a.58.58 0 0 1 .54 0l.11.06a.6.6 0 0 1 .26.45z"/><ellipse class="cls-15" cx="227.18" cy="334.44" rx="9.52" ry="4.84"/><path d="M217.66 326.44v4.84c0 2.67 4.26 4.84 9.52 4.84s9.52-2.17 9.52-4.84v-4.84z" fill="#efc356"/><ellipse class="cls-9" cx="227.18" cy="326.44" rx="9.52" ry="4.84"/><ellipse class="cls-11" cx="227.18" cy="326.44" rx="4.29" ry="2.18"/><ellipse class="cls-15" cx="208.14" cy="345.89" rx="9.52" ry="4.84"/><path d="M198.62 337.89v4.84c0 2.67 4.26 4.84 9.52 4.84s9.52-2.16 9.52-4.84v-4.84z" fill="#e83d83"/><ellipse class="cls-10" cx="208.14" cy="337.89" rx="9.52" ry="4.84"/><path class="cls-11" d="M206.42 334.14l7.42 4.53-10.37 1.33 2.95-5.86z"/><ellipse class="cls-15" cx="246.22" cy="322.99" rx="9.52" ry="4.84"/><path d="M236.7 315v4.84c0 2.67 4.26 4.84 9.52 4.84s9.52-2.17 9.52-4.84V315z" fill="#00e0c1"/><ellipse cx="246.22" cy="314.99" rx="9.52" ry="4.84" fill="#02f5d0"/><path class="cls-11" d="M240.35 313.62l7.41 4.53 2.92-5.92-10.33 1.39z"/></g></g></g></svg>