<svg xmlns="http://www.w3.org/2000/svg" xmlns:xlink="http://www.w3.org/1999/xlink" viewBox="0 0 2546.64 1594.83"><defs><style>.cls-27{fill:#ededed}.cls-28{fill:#d1d1d1}.cls-29{fill:#bcbcbc}.cls-30{fill:#f2f2f2}.cls-31{fill:#fff}.cls-34{fill:#3b3b3b}.cls-35{fill:#00796b}.cls-36{fill:#004d40}.cls-40{fill:#4527a0}.cls-41{fill:#7e57c2}.cls-42{fill:#bababa}.cls-45{fill:#80deea}.cls-47{fill:#ffeb3b}.cls-49{fill:#f6f6f6}</style><filter id="luminosity-noclip" x="1232.55" y="-8995.15" width="289" height="32766" filterUnits="userSpaceOnUse" color-interpolation-filters="sRGB"><feFlood flood-color="#fff" result="bg"/><feBlend in="SourceGraphic" in2="bg"/></filter><linearGradient id="_ÂÁ_Ï_ÌÌ_È_ËÂÌÚ_2" x1="1459.11" y1="589.45" x2="1411.91" y2="507.71" gradientTransform="matrix(1.55 0 0 1.24 -846.28 -287.98)" gradientUnits="userSpaceOnUse"><stop offset=".03"/><stop offset=".12" stop-color="#0f0f0f"/><stop offset=".31" stop-color="#373737"/><stop offset=".56" stop-color="#767676"/><stop offset=".73" stop-color="#a6a6a6"/><stop offset=".74" stop-color="#aaa"/><stop offset=".81" stop-color="#c9c9c9"/><stop offset=".88" stop-color="#e0e0e0"/><stop offset=".94" stop-color="#ededed"/><stop offset="1" stop-color="#f2f2f2"/></linearGradient><filter id="luminosity-noclip-2" x="1119.1" y="-8995.15" width="289" height="32766" filterUnits="userSpaceOnUse" color-interpolation-filters="sRGB"><feFlood flood-color="#fff" result="bg"/><feBlend in="SourceGraphic" in2="bg"/></filter><linearGradient id="_ÂÁ_Ï_ÌÌ_È_ËÂÌÚ_2-2" x1="1387.77" y1="1418.78" x2="1340.58" y2="1337.04" xlink:href="#_ÂÁ_Ï_ÌÌ_È_ËÂÌÚ_2"/><filter id="luminosity-noclip-3" x="1796.53" y="-8995.15" width="289" height="32766" filterUnits="userSpaceOnUse" color-interpolation-filters="sRGB"><feFlood flood-color="#fff" result="bg"/><feBlend in="SourceGraphic" in2="bg"/></filter><linearGradient id="_ÂÁ_Ï_ÌÌ_È_ËÂÌÚ_2-3" x1="1824.43" y1="1080.98" x2="1777.24" y2="999.24" xlink:href="#_ÂÁ_Ï_ÌÌ_È_ËÂÌÚ_2"/><filter id="luminosity-noclip-4" x="2012.27" y="-8995.15" width="163.38" height="32766" filterUnits="userSpaceOnUse" color-interpolation-filters="sRGB"><feFlood flood-color="#fff" result="bg"/><feBlend in="SourceGraphic" in2="bg"/></filter><linearGradient id="_ÂÁ_Ï_ÌÌ_È_ËÂÌÚ_2-4" x1="1911.69" y1="1154.98" x2="1888.96" y2="1115.61" xlink:href="#_ÂÁ_Ï_ÌÌ_È_ËÂÌÚ_2"/><filter id="luminosity-noclip-5" x="641.03" y="-8995.15" width="289" height="32766" filterUnits="userSpaceOnUse" color-interpolation-filters="sRGB"><feFlood flood-color="#fff" result="bg"/><feBlend in="SourceGraphic" in2="bg"/></filter><linearGradient id="_ÂÁ_Ï_ÌÌ_È_ËÂÌÚ_2-5" x1="1077.72" y1="840.83" x2="1030.53" y2="759.09" xlink:href="#_ÂÁ_Ï_ÌÌ_È_ËÂÌÚ_2"/><filter id="luminosity-noclip-6" x="452.15" y="-8995.15" width="289" height="32766" filterUnits="userSpaceOnUse" color-interpolation-filters="sRGB"><feFlood flood-color="#fff" result="bg"/><feBlend in="SourceGraphic" in2="bg"/></filter><linearGradient id="_ÂÁ_Ï_ÌÌ_È_ËÂÌÚ_2-6" x1="956.04" y1="964.16" x2="908.85" y2="882.42" xlink:href="#_ÂÁ_Ï_ÌÌ_È_ËÂÌÚ_2"/><filter id="luminosity-noclip-7" x="2141.76" y="-8995.15" width="403.13" height="32766" filterUnits="userSpaceOnUse" color-interpolation-filters="sRGB"><feFlood flood-color="#fff" result="bg"/><feBlend in="SourceGraphic" in2="bg"/></filter><linearGradient id="_ÂÁ_Ï_ÌÌ_È_ËÂÌÚ_2-7" x1="2396.83" y1="1010.12" x2="2305.21" y2="863.49" xlink:href="#_ÂÁ_Ï_ÌÌ_È_ËÂÌÚ_2"/><filter id="luminosity-noclip-8" x="192.32" y="-8995.15" width="289" height="32766" filterUnits="userSpaceOnUse" color-interpolation-filters="sRGB"><feFlood flood-color="#fff" result="bg"/><feBlend in="SourceGraphic" in2="bg"/></filter><linearGradient id="_ÂÁ_Ï_ÌÌ_È_ËÂÌÚ_2-8" x1="788.39" y1="1021.7" x2="741.2" y2="939.96" xlink:href="#_ÂÁ_Ï_ÌÌ_È_ËÂÌÚ_2"/><filter id="luminosity-noclip-9" x="488.02" y="-8995.15" width="289" height="32766" filterUnits="userSpaceOnUse" color-interpolation-filters="sRGB"><feFlood flood-color="#fff" result="bg"/><feBlend in="SourceGraphic" in2="bg"/></filter><linearGradient id="_ÂÁ_Ï_ÌÌ_È_ËÂÌÚ_2-9" x1="979.71" y1="1183.42" x2="932.52" y2="1101.68" xlink:href="#_ÂÁ_Ï_ÌÌ_È_ËÂÌÚ_2"/><filter id="luminosity-noclip-10" x="1579.4" y="-8995.15" width="289" height="32766" filterUnits="userSpaceOnUse" color-interpolation-filters="sRGB"><feFlood flood-color="#fff" result="bg"/><feBlend in="SourceGraphic" in2="bg"/></filter><linearGradient id="_ÂÁ_Ï_ÌÌ_È_ËÂÌÚ_2-10" x1="1684.62" y1="1251.13" x2="1637.43" y2="1169.39" xlink:href="#_ÂÁ_Ï_ÌÌ_È_ËÂÌÚ_2"/><filter id="luminosity-noclip-11" x="1623.98" y="-8995.15" width="463.01" height="32766" filterUnits="userSpaceOnUse" color-interpolation-filters="sRGB"><feFlood flood-color="#fff" result="bg"/><feBlend in="SourceGraphic" in2="bg"/></filter><linearGradient id="_ÂÁ_Ï_ÌÌ_È_ËÂÌÚ_2-11" x1="1974.69" y1="1006.77" x2="1824.18" y2="765.9" xlink:href="#_ÂÁ_Ï_ÌÌ_È_ËÂÌÚ_2"/><filter id="luminosity-noclip-12" x="1110.56" y="-8995.15" width="195.09" height="32766" filterUnits="userSpaceOnUse" color-interpolation-filters="sRGB"><feFlood flood-color="#fff" result="bg"/><feBlend in="SourceGraphic" in2="bg"/></filter><linearGradient id="_ÂÁ_Ï_ÌÌ_È_ËÂÌÚ_2-12" x1="1266.48" y1="780.17" x2="1190.26" y2="658.2" xlink:href="#_ÂÁ_Ï_ÌÌ_È_ËÂÌÚ_2"/><linearGradient id="_ÂÁ_Ï_ÌÌ_È_ËÂÌÚ_42" y1="1228.01" x2="2546.64" y2="1228.01" gradientUnits="userSpaceOnUse"><stop offset=".02" stop-color="#4db6ac"/><stop offset=".1" stop-color="#4db6ac"/><stop offset=".31" stop-color="#4bb5ab"/><stop offset=".38" stop-color="#44b1a6"/><stop offset=".44" stop-color="#39aa9f"/><stop offset=".48" stop-color="#28a094"/><stop offset=".49" stop-color="#209c8f"/><stop offset=".51" stop-color="#1d9a8d"/><stop offset=".52" stop-color="#149587"/><stop offset=".53" stop-color="#058c7e"/><stop offset=".53" stop-color="#00897b"/><stop offset=".53" stop-color="#00887a"/><stop offset=".56" stop-color="#007265"/><stop offset=".6" stop-color="#006154"/><stop offset=".65" stop-color="#005649"/><stop offset=".72" stop-color="#004f42"/><stop offset=".91" stop-color="#004d40"/><stop offset="1" stop-color="#004340"/></linearGradient><filter id="luminosity-noclip-13" x="1232.55" y="365.25" width="289" height="51.42" filterUnits="userSpaceOnUse" color-interpolation-filters="sRGB"><feFlood flood-color="#fff" result="bg"/><feBlend in="SourceGraphic" in2="bg"/></filter><mask id="mask-13" x="1232.55" y="365.25" width="289" height="51.42" maskUnits="userSpaceOnUse"><g mask="url(#mask)" filter="url(#luminosity-noclip-13)"><path style="mix-blend-mode:multiply" fill="url(#_ÂÁ_Ï_ÌÌ_È_ËÂÌÚ_2)" d="M1232.62 387.71l-.07 8.49 56.25-.55 32.89 21.02 199.86-28.07-200.47-23.35-30.15 21.77-58.31.69z"/></g></mask><linearGradient id="_ÂÁ_Ï_ÌÌ_È_ËÂÌÚ_6" x1="1459.11" y1="589.45" x2="1411.91" y2="507.71" gradientTransform="matrix(1.55 0 0 1.24 -846.28 -287.98)" gradientUnits="userSpaceOnUse"><stop offset=".03" stop-color="#161412"/><stop offset=".73" stop-color="#161412"/><stop offset="1" stop-color="#161412"/></linearGradient><filter id="luminosity-noclip-14" x="2141.76" y="840.33" width="403.13" height="130.2" filterUnits="userSpaceOnUse" color-interpolation-filters="sRGB"><feFlood flood-color="#fff" result="bg"/><feBlend in="SourceGraphic" in2="bg"/></filter><mask id="mask-14" x="2141.76" y="840.33" width="403.13" height="130.2" maskUnits="userSpaceOnUse"><g mask="url(#mask-7)" filter="url(#luminosity-noclip-14)"><path d="M2397.88 840.33l-256.12 125.3 308.08 4.9s53.74-24.25 67.84-36.82c25.16-22.42 27.2-50.34 27.2-50.34z" style="mix-blend-mode:multiply" fill="url(#_ÂÁ_Ï_ÌÌ_È_ËÂÌÚ_2-7)"/></g></mask><linearGradient id="_ÂÁ_Ï_ÌÌ_È_ËÂÌÚ_6-2" x1="2396.83" y1="1010.12" x2="2305.21" y2="863.49" xlink:href="#_ÂÁ_Ï_ÌÌ_È_ËÂÌÚ_6"/><filter id="luminosity-noclip-15" x="1579.4" y="1187.51" width="289" height="51.42" filterUnits="userSpaceOnUse" color-interpolation-filters="sRGB"><feFlood flood-color="#fff" result="bg"/><feBlend in="SourceGraphic" in2="bg"/></filter><mask id="mask-15" x="1579.4" y="1187.51" width="289" height="51.42" maskUnits="userSpaceOnUse"><g mask="url(#mask-10)" filter="url(#luminosity-noclip-15)"><path style="mix-blend-mode:multiply" fill="url(#_ÂÁ_Ï_ÌÌ_È_ËÂÌÚ_2-10)" d="M1579.47 1209.96l-.07 8.5 56.24-.56 32.9 21.03 199.86-28.07-200.47-23.35-30.15 21.77-58.31.68z"/></g></mask><linearGradient id="_ÂÁ_Ï_ÌÌ_È_ËÂÌÚ_6-3" x1="1684.62" y1="1251.13" x2="1637.43" y2="1169.39" xlink:href="#_ÂÁ_Ï_ÌÌ_È_ËÂÌÚ_6"/><filter id="luminosity-noclip-16" x="1623.98" y="617.13" width="463.01" height="358.18" filterUnits="userSpaceOnUse" color-interpolation-filters="sRGB"><feFlood flood-color="#fff" result="bg"/><feBlend in="SourceGraphic" in2="bg"/></filter><mask id="mask-16" x="1623.98" y="617.13" width="463.01" height="358.18" maskUnits="userSpaceOnUse"><g mask="url(#mask-11)" filter="url(#luminosity-noclip-16)"><path style="mix-blend-mode:multiply" fill="url(#_ÂÁ_Ï_ÌÌ_È_ËÂÌÚ_2-11)" d="M1623.98 975.3l463.01-38.7-24.72-319.47-164.39 223.2-273.9 134.97z"/></g></mask><linearGradient id="_ÂÁ_Ï_ÌÌ_È_ËÂÌÚ_6-4" x1="1974.69" y1="1006.77" x2="1824.18" y2="765.9" xlink:href="#_ÂÁ_Ï_ÌÌ_È_ËÂÌÚ_6"/><filter id="luminosity-noclip-17" x="1110.56" y="586.09" width="195.09" height="201.31" filterUnits="userSpaceOnUse" color-interpolation-filters="sRGB"><feFlood flood-color="#fff" result="bg"/><feBlend in="SourceGraphic" in2="bg"/></filter><mask id="mask-17" x="1110.56" y="586.09" width="195.09" height="201.31" maskUnits="userSpaceOnUse"><g mask="url(#mask-12)" filter="url(#luminosity-noclip-17)"><path style="mix-blend-mode:multiply" fill="url(#_ÂÁ_Ï_ÌÌ_È_ËÂÌÚ_2-12)" d="M1110.56 787.41h144.34l50.75-201.31-121.67 165.2-73.42 36.11z"/></g></mask><linearGradient id="_ÂÁ_Ï_ÌÌ_È_ËÂÌÚ_6-5" x1="1266.48" y1="780.17" x2="1190.26" y2="658.2" xlink:href="#_ÂÁ_Ï_ÌÌ_È_ËÂÌÚ_6"/><filter id="luminosity-noclip-18" x="1119.1" y="1397.11" width="289" height="51.42" filterUnits="userSpaceOnUse" color-interpolation-filters="sRGB"><feFlood flood-color="#fff" result="bg"/><feBlend in="SourceGraphic" in2="bg"/></filter><mask id="mask-18" x="1119.1" y="1397.11" width="289" height="51.42" maskUnits="userSpaceOnUse"><g mask="url(#mask-2)" filter="url(#luminosity-noclip-18)"><path style="mix-blend-mode:multiply" fill="url(#_ÂÁ_Ï_ÌÌ_È_ËÂÌÚ_2-2)" d="M1119.17 1419.57l-.07 8.49 56.25-.55 32.89 21.02 199.87-28.07-200.48-23.35-30.15 21.77-58.31.69z"/></g></mask><linearGradient id="_ÂÁ_Ï_ÌÌ_È_ËÂÌÚ_6-6" x1="1387.77" y1="1418.78" x2="1340.58" y2="1337.04" xlink:href="#_ÂÁ_Ï_ÌÌ_È_ËÂÌÚ_6"/><filter id="luminosity-noclip-19" x="1796.53" y="975.36" width="289" height="51.42" filterUnits="userSpaceOnUse" color-interpolation-filters="sRGB"><feFlood flood-color="#fff" result="bg"/><feBlend in="SourceGraphic" in2="bg"/></filter><mask id="mask-19" x="1796.53" y="975.36" width="289" height="51.42" maskUnits="userSpaceOnUse"><g mask="url(#mask-3)" filter="url(#luminosity-noclip-19)"><path style="mix-blend-mode:multiply" fill="url(#_ÂÁ_Ï_ÌÌ_È_ËÂÌÚ_2-3)" d="M1796.6 997.81l-.07 8.49 56.24-.55 32.89 21.02 199.87-28.06-200.47-23.35-30.15 21.76-58.31.69z"/></g></mask><linearGradient id="_ÂÁ_Ï_ÌÌ_È_ËÂÌÚ_6-7" x1="1824.43" y1="1080.98" x2="1777.24" y2="999.24" xlink:href="#_ÂÁ_Ï_ÌÌ_È_ËÂÌÚ_6"/><filter id="luminosity-noclip-20" x="2012.27" y="1099.61" width="163.38" height="48.4" filterUnits="userSpaceOnUse" color-interpolation-filters="sRGB"><feFlood flood-color="#fff" result="bg"/><feBlend in="SourceGraphic" in2="bg"/></filter><mask id="mask-20" x="2012.27" y="1099.61" width="163.38" height="48.4" maskUnits="userSpaceOnUse"><g mask="url(#mask-4)" filter="url(#luminosity-noclip-20)"><path style="mix-blend-mode:multiply" fill="url(#_ÂÁ_Ï_ÌÌ_È_ËÂÌÚ_2-4)" d="M2012.34 1122.07l-.07 8.49 56.25-.55 28.18 18.01 78.96-39.69-74.86-8.72-30.15 21.77-58.31.69z"/></g></mask><linearGradient id="_ÂÁ_Ï_ÌÌ_È_ËÂÌÚ_6-8" x1="1911.69" y1="1154.98" x2="1888.96" y2="1115.61" xlink:href="#_ÂÁ_Ï_ÌÌ_È_ËÂÌÚ_6"/><filter id="luminosity-noclip-21" x="641.03" y="679.32" width="289" height="51.42" filterUnits="userSpaceOnUse" color-interpolation-filters="sRGB"><feFlood flood-color="#fff" result="bg"/><feBlend in="SourceGraphic" in2="bg"/></filter><mask id="mask-21" x="641.03" y="679.32" width="289" height="51.42" maskUnits="userSpaceOnUse"><g mask="url(#mask-5)" filter="url(#luminosity-noclip-21)"><path style="mix-blend-mode:multiply" fill="url(#_ÂÁ_Ï_ÌÌ_È_ËÂÌÚ_2-5)" d="M641.09 701.77l-.06 8.49 56.24-.55 32.89 21.02 199.87-28.06-200.47-23.35-30.15 21.76-58.32.69z"/></g></mask><linearGradient id="_ÂÁ_Ï_ÌÌ_È_ËÂÌÚ_6-9" x1="1077.72" y1="840.83" x2="1030.53" y2="759.09" xlink:href="#_ÂÁ_Ï_ÌÌ_È_ËÂÌÚ_6"/><filter id="luminosity-noclip-22" x="452.15" y="833.17" width="289" height="51.42" filterUnits="userSpaceOnUse" color-interpolation-filters="sRGB"><feFlood flood-color="#fff" result="bg"/><feBlend in="SourceGraphic" in2="bg"/></filter><mask id="mask-22" x="452.15" y="833.17" width="289" height="51.42" maskUnits="userSpaceOnUse"><g mask="url(#mask-6)" filter="url(#luminosity-noclip-22)"><path style="mix-blend-mode:multiply" fill="url(#_ÂÁ_Ï_ÌÌ_È_ËÂÌÚ_2-6)" d="M452.22 855.63l-.07 8.49 56.25-.55 32.89 21.02 199.87-28.07-200.48-23.35-30.15 21.77-58.31.69z"/></g></mask><linearGradient id="_ÂÁ_Ï_ÌÌ_È_ËÂÌÚ_6-10" x1="956.04" y1="964.16" x2="908.85" y2="882.42" xlink:href="#_ÂÁ_Ï_ÌÌ_È_ËÂÌÚ_6"/><filter id="luminosity-noclip-23" x="192.32" y="905.34" width="289" height="51.42" filterUnits="userSpaceOnUse" color-interpolation-filters="sRGB"><feFlood flood-color="#fff" result="bg"/><feBlend in="SourceGraphic" in2="bg"/></filter><mask id="mask-23" x="192.32" y="905.34" width="289" height="51.42" maskUnits="userSpaceOnUse"><g mask="url(#mask-8)" filter="url(#luminosity-noclip-23)"><path style="mix-blend-mode:multiply" fill="url(#_ÂÁ_Ï_ÌÌ_È_ËÂÌÚ_2-8)" d="M192.39 927.8l-.07 8.49 56.25-.55 32.89 21.02 199.87-28.07-200.48-23.35-30.15 21.77-58.31.69z"/></g></mask><linearGradient id="_ÂÁ_Ï_ÌÌ_È_ËÂÌÚ_6-11" x1="788.39" y1="1021.7" x2="741.2" y2="939.96" xlink:href="#_ÂÁ_Ï_ÌÌ_È_ËÂÌÚ_6"/><filter id="luminosity-noclip-24" x="488.02" y="1105.82" width="289" height="51.42" filterUnits="userSpaceOnUse" color-interpolation-filters="sRGB"><feFlood flood-color="#fff" result="bg"/><feBlend in="SourceGraphic" in2="bg"/></filter><mask id="mask-24" x="488.02" y="1105.82" width="289" height="51.42" maskUnits="userSpaceOnUse"><g mask="url(#mask-9)" filter="url(#luminosity-noclip-24)"><path style="mix-blend-mode:multiply" fill="url(#_ÂÁ_Ï_ÌÌ_È_ËÂÌÚ_2-9)" d="M488.08 1128.28l-.06 8.49 56.24-.56 32.89 21.03 199.87-28.07-200.47-23.35-30.15 21.77-58.32.69z"/></g></mask><linearGradient id="_ÂÁ_Ï_ÌÌ_È_ËÂÌÚ_6-12" x1="979.71" y1="1183.42" x2="932.52" y2="1101.68" xlink:href="#_ÂÁ_Ï_ÌÌ_È_ËÂÌÚ_6"/></defs><g id="Layer_2" data-name="Layer 2"><g id="_ÎÓÈ_3" data-name="—ÎÓÈ_3"><path d="M2544.94 861.2c4.26 32.3-10.49 66.82-44.23 83.76L1349.5 1523.57a245.26 245.26 0 0 1-220 0L45.25 979.44c-34.17-17.15-48.85-52.33-44-85-2 7.22-.85 49.41-.9 56.88-.16 29.06 14.82 58.19 44.95 73.31l1084.23 544.13a245.26 245.26 0 0 0 220 0l1151.18-578.6a80.31 80.31 0 0 0 44.39-63.23c1.25-10.77 2.8-55.26-.16-65.73z" fill="url(#_ÂÁ_Ï_ÌÌ_È_ËÂÌÚ_42)"/><path d="M2544.94 861.2a80.27 80.27 0 0 0-44.23-61.94l-1085.39-544.7a245.26 245.26 0 0 0-220.22.1L45.18 833.79a80.24 80.24 0 0 0-44 60.68c-4.8 32.65 9.88 67.84 44 85l1084.23 544.13a245.26 245.26 0 0 0 220 0L2500.71 945c33.74-17 48.48-51.5 44.23-83.8z" fill="#26a69a"/></g><g id="_ÎÓÈ_7" data-name="—ÎÓÈ_7"><path class="cls-27" d="M569.67 356.57l167.61 21.48 159.06-102.17 197.49-17.34 17.72-138.38L895.62 0 703.07 125.58l-153.85 4.5-66.91 136.63 87.36 89.86z"/><path class="cls-28" d="M1093.83 258.54L973.25 173.3l-76.91 102.58-131.44-3.22-33.57 104.62-85.12-75.45-76.54 54.74 2.07-126.8-89.43 36.94 80.95 100.12 173.62 22.24 122.78-68.98 79.72-15.23 154.45-46.32z"/><path class="cls-29" d="M1111.78 118.35L973.25 173.3l120.58 85.24 17.31-135.14.64-5.05z"/><path class="cls-30" d="M571.74 229.77l74.47 72.06-76.54 54.74 2.07-126.8zM764.9 272.66l78.82-105.15 52.62 108.37-131.44-3.22zM973.25 173.3l-129.53-5.79 65.05-99.43 64.48 105.22zM764.9 272.66l-118.69 29.17 85.12 75.45 33.57-104.62z"/><path class="cls-31" d="M571.74 229.77l-22.52-99.69 153.85-4.5-131.33 104.19z"/><path class="cls-31" d="M646.21 301.83l56.86-176.25 61.83 147.08-118.69 29.17zM843.72 167.51l-140.65-41.93 117.37-76.55 23.28 118.48zM908.77 68.08L895.62 0l123.34 68.64-110.19-.56z"/><path class="cls-29" d="M859.66 320.09l36.68-44.21 43.04 28.98-79.72 15.23z"/><g mask="url(#mask-13)"><path fill="url(#_ÂÁ_Ï_ÌÌ_È_ËÂÌÚ_6)" opacity=".38" d="M1232.62 387.71l-.07 8.49 56.25-.55 32.89 21.02 199.86-28.07-200.47-23.35-30.15 21.77-58.31.69z"/></g><path class="cls-34" d="M1224.19 394.14a19.9 19.9 0 0 0 18.09.12l.24-.12v-80.27l-9.16-4.6-9.16 4.45z"/><path class="cls-35" d="M1233.36 189.46l-54.78 141.82 54.78 27.77V189.46z"/><path class="cls-36" d="M1233.36 189.46l54.77 141.82-54.77 27.77V189.46z"/><g mask="url(#mask-14)"><path d="M2397.88 840.33l-256.12 125.3 308.08 4.9s53.74-24.25 67.84-36.82c25.16-22.42 27.2-50.34 27.2-50.34z" opacity=".42" fill="url(#_ÂÁ_Ï_ÌÌ_È_ËÂÌÚ_6-2)"/></g><path d="M804 762.83L693.19 819c-18 9.11-18 34.77-.08 43.94l6.88 3.52a21.25 21.25 0 0 1-.16 37.92L626.6 941c-28.06 14-28.09 54.08 0 68.16l235.28 118.08a121 121 0 0 0 108.68-.06l3.48-1.75a70.52 70.52 0 0 1 63.59.1l18.31 9.28a86.4 86.4 0 0 0 77.82.16l173.83-87.24c22.75-11.42 22.78-43.89 0-55.34l-34.11-17.17-37-18.52c-20-10-20.83-38.29-1.41-49.42l1.75-1a22.42 22.42 0 0 0-1.1-39.48l-24.85-12.47a58.27 58.27 0 0 0-53.31.53l-25.33 13.35a77.45 77.45 0 0 1-70.85.71L849.23 762.68a50.33 50.33 0 0 0-45.23.15z" fill="#4dd0e1"/><path class="cls-40" d="M864.45 662.11l246.11 125.3 253.89-125.3-256.12-331.13-243.88 331.13z"/><path class="cls-41" d="M864.45 662.11l246.11 125.3-2.23-456.43-243.88 331.13z"/><path class="cls-42" d="M1108.33 330.98l86.07 111.28-11.74 35.72-46.92-19.12-26.59 39.67-.82-167.55z"/><path class="cls-27" d="M1108.33 330.98l.82 167.55-24.46-40.38-44.65 15.99-11.21-35.23 79.5-107.93z"/><path class="cls-40" d="M1183.98 751.3l440 224 453.88-224-457.88-592-436 592z"/><path class="cls-41" d="M1183.98 751.3l440 224-4-816-436 592z"/><path class="cls-42" d="M1619.98 159.3l153.88 198.95-20.99 63.86-83.89-34.18-47.54 70.92-1.46-299.55z"/><path class="cls-27" d="M1619.98 159.12l1.46 299.73-43.73-72.19-79.82 28.59-20.03-62.98 142.12-193.15z"/><path class="cls-40" d="M1897.88 840.33L2144 965.62l253.88-125.29-256.12-331.14-243.88 331.14z"/><path class="cls-41" d="M1897.88 840.33L2144 965.62l-2.24-456.43-243.88 331.14z"/><path class="cls-42" d="M2141.76 509.19l86.08 111.28-11.74 35.72-46.92-19.12-26.6 39.67-.82-167.55z"/><path class="cls-27" d="M2141.76 509.19l.82 167.55-24.46-40.38-44.65 16-11.2-35.23 79.49-107.94z"/><g mask="url(#mask-15)"><path fill="url(#_ÂÁ_Ï_ÌÌ_È_ËÂÌÚ_6-3)" opacity=".38" d="M1579.47 1209.96l-.07 8.5 56.24-.56 32.9 21.03 199.86-28.07-200.47-23.35-30.15 21.77-58.31.68z"/></g><path class="cls-34" d="M1571 1216.4a19.9 19.9 0 0 0 18.09.12l.24-.12v-80.27l-9.16-4.6-9.17 4.47z"/><path class="cls-35" d="M1580.2 1011.71l-54.77 141.83 54.77 27.77v-169.6z"/><path class="cls-36" d="M1580.2 1011.71l54.78 141.83-54.78 27.77v-169.6z"/><path class="cls-45" d="M711.53 942.78L710 942a12.48 12.48 0 0 0-11.17 0l-37.36 18.75a2.56 2.56 0 0 0 0 4.57l1.9 1a12.48 12.48 0 0 0 11.29 0l36.9-18.91a2.56 2.56 0 0 0-.03-4.63zM783.58 826.12l-1.55-.77a12.48 12.48 0 0 0-11.17 0l-37.35 18.75a2.56 2.56 0 0 0 0 4.57l1.9 1a12.48 12.48 0 0 0 11.29 0l36.9-18.91a2.56 2.56 0 0 0-.02-4.64zM901.58 839.58l-1.55-.77a12.48 12.48 0 0 0-11.17 0l-37.36 18.75a2.56 2.56 0 0 0 0 4.57l1.9 1a12.48 12.48 0 0 0 11.29 0l36.9-18.91a2.56 2.56 0 0 0-.01-4.64zM795.63 970.18l-1.55-.77a12.48 12.48 0 0 0-11.17 0l-37.36 18.75a2.56 2.56 0 0 0 0 4.57l1.9 1a12.48 12.48 0 0 0 11.29 0l36.9-18.91a2.56 2.56 0 0 0-.01-4.64zM962.46 987.91l-1.55-.77a12.48 12.48 0 0 0-11.17 0l-37.36 18.75a2.56 2.56 0 0 0 0 4.57l1.9 1a12.48 12.48 0 0 0 11.29 0l36.9-18.91a2.56 2.56 0 0 0-.01-4.64zM1146.46 1059.24l-1.55-.77a12.48 12.48 0 0 0-11.17 0l-37.36 18.75a2.56 2.56 0 0 0 0 4.57l1.9 1a12.48 12.48 0 0 0 11.29 0l36.9-18.91a2.56 2.56 0 0 0-.01-4.64zM1190.54 979.63l-1.55-.77a12.48 12.48 0 0 0-11.17 0l-37.36 18.75a2.56 2.56 0 0 0 0 4.57l1.9 1a12.48 12.48 0 0 0 11.29 0l36.9-18.91a2.56 2.56 0 0 0-.01-4.64zM936 929.31l-1.55-.77a12.48 12.48 0 0 0-11.17 0l-37.34 18.76a2.56 2.56 0 0 0 0 4.57l1.9 1a12.48 12.48 0 0 0 11.29 0L936 933.88a2.56 2.56 0 0 0 0-4.57zM1051.34 899l-1.55-.77a12.48 12.48 0 0 0-11.17 0L1001.27 917a2.56 2.56 0 0 0 0 4.57l1.9 1a12.48 12.48 0 0 0 11.29 0l36.9-18.91a2.56 2.56 0 0 0-.02-4.66zM1182.56 888.32l-1.55-.77a12.48 12.48 0 0 0-11.17 0l-37.36 18.75a2.56 2.56 0 0 0 0 4.57l1.9 1a12.48 12.48 0 0 0 11.29 0l36.9-18.91a2.56 2.56 0 0 0-.01-4.64zM1072.56 983.65l-1.55-.77a12.48 12.48 0 0 0-11.17 0l-37.36 18.75a2.56 2.56 0 0 0 0 4.57l1.9 1a12.48 12.48 0 0 0 11.29 0l36.9-18.91a2.56 2.56 0 0 0-.01-4.64zM957.89 1068.32l-1.55-.77a12.48 12.48 0 0 0-11.17 0l-37.36 18.75a2.56 2.56 0 0 0 0 4.57l1.9 1a12.48 12.48 0 0 0 11.29 0l36.9-18.91a2.56 2.56 0 0 0-.01-4.64z"/><path class="cls-34" d="M1616.06 164.62l3.92 1.62 4-1.77v-55.06h-7.92v55.21z"/><path fill="#4f4f4f" d="M1616.06 164.62l3.92 1.62v-56.83h-3.92v55.21z"/><path class="cls-47" d="M1615.39 21.36l.64 89.3 53.28 26.68V47.73l-53.92-27.75v1.38z"/><path fill="#fdd835" d="M1669.31 57.61v89.61l71.63 36.24-30.34-60.12 30.34-29.49-71.63-36.24z"/><path class="cls-49" d="M1546.62 649.87l-193.79 187.39c5.71 1.19 9.66 5.89 15.48 5.89l184.37-178.28h69.63v-15zM691.88 1349.16l15 7.53v-45.16c-5.15-2.61-9.48-5.5-15-7.19z"/><path d="M1368.18 843.29l.14-.14c-5.82 0-9.77-4.7-15.48-5.89l88.53 229.51-63.94 262.17-463.36-90-222.19 65v.38c5.52 1.69 9.85 4.58 15 7.19l207.84-57.09 473.88 92 67.9-278.42.57-2.32z" fill="#e5e5e5"/><path class="cls-49" d="M1622.38 649.87h-.06v15h.14z"/><path fill="#e0e0e0" d="M1622.38 649.88l144.44-170.06-146.73-297.28-.11-16.3 4-1.77 9.35 12 149.42 305.39-160.3 183.02-.07-15z"/><ellipse class="cls-47" cx="926.73" cy="1248.05" rx="30" ry="15.06"/><path class="cls-49" d="M926.73 1268.11c-20 0-35-8.62-35-20.06s15-20.05 35-20.05 35 8.62 35 20.05-15.04 20.06-35 20.06zm0-30.11c-15.26 0-25 6-25 10.05s9.74 10.06 25 10.06 25-6 25-10.06-9.73-10.05-25-10.05z"/><ellipse class="cls-47" cx="1380.07" cy="1334.92" rx="30" ry="15.06"/><path class="cls-49" d="M1380.07 1355c-20 0-35-8.62-35-20.06s15-20.06 35-20.06 35 8.62 35 20.06-15.07 20.06-35 20.06zm0-30.11c-15.26 0-25 6-25 10.06s9.74 10.06 25 10.06 25-6 25-10.06-9.74-10.08-25-10.08z"/><ellipse class="cls-47" cx="1446.86" cy="1064.36" rx="30" ry="15.06"/><path class="cls-49" d="M1446.86 1084.41c-20 0-35-8.62-35-20.05s15-20.06 35-20.06 35 8.62 35 20.06-15.04 20.05-35 20.05zm0-30.11c-15.26 0-25 6-25 10.06s9.74 10.05 25 10.05 25-6 25-10.05-9.74-10.06-25-10.06z"/><ellipse class="cls-47" cx="1364.45" cy="840.49" rx="26.19" ry="13.14"/><path class="cls-49" d="M1364.45 858.63c-17.78 0-31.19-7.8-31.19-18.14s13.41-18.14 31.19-18.14 31.19 7.8 31.19 18.14-13.41 18.14-31.19 18.14zm0-26.28c-13.71 0-21.19 5.38-21.19 8.14s7.48 8.14 21.19 8.14 21.19-5.38 21.19-8.14-7.48-8.14-21.19-8.14z"/><path class="cls-47" d="M1554.26 671.83c-8.13 7.6-19.5 8.64-25.4 2.33s-4.1-17.58 4-25.18 19.5-8.64 25.4-2.33 4.12 17.58-4 25.18z"/><path class="cls-49" d="M1539.06 683.25a18.63 18.63 0 0 1-13.86-5.67c-3.93-4.2-5.54-10-4.53-16.31a28.25 28.25 0 0 1 8.8-15.94c10.13-9.47 24.69-10.41 32.47-2.1 3.93 4.2 5.54 10 4.53 16.31a28.25 28.25 0 0 1-8.8 15.94 27.7 27.7 0 0 1-18.61 7.77zm9-35.71a18 18 0 0 0-11.8 5.1 18.48 18.48 0 0 0-5.75 10.21c-.51 3.2.19 6 2 7.9 3.94 4.21 12.34 3 18.34-2.57a18.48 18.48 0 0 0 5.75-10.21c.51-3.2-.19-6-2-7.9a8.73 8.73 0 0 0-6.51-2.54z"/><path class="cls-47" d="M1787 472.33c6 9.38 4.93 20.75-2.35 25.4s-18 .82-24-8.56-4.93-20.75 2.35-25.4 18.06-.77 24 8.56z"/><path class="cls-49" d="M1777.74 504.72a21.53 21.53 0 0 1-7.23-1.3 28.25 28.25 0 0 1-14.06-11.56c-7.46-11.69-5.72-26.18 3.87-32.3 4.85-3.1 10.84-3.62 16.87-1.48a28.25 28.25 0 0 1 14.06 11.56c7.46 11.69 5.72 26.18-3.87 32.3a17.74 17.74 0 0 1-9.64 2.78zm-7.74-37.93a7.88 7.88 0 0 0-4.29 1.19c-4.86 3.11-5.24 11.58-.82 18.5a18.48 18.48 0 0 0 9 7.52c3 1.09 5.94.91 8.13-.49 4.86-3.11 5.24-11.58.83-18.5a18.48 18.48 0 0 0-9-7.52 11.46 11.46 0 0 0-3.85-.7z"/><g mask="url(#mask-16)"><path fill="url(#_ÂÁ_Ï_ÌÌ_È_ËÂÌÚ_6-4)" opacity=".38" d="M1623.98 975.3l463.01-38.7-24.72-319.47-164.39 223.2-273.9 134.97z"/></g><g mask="url(#mask-17)"><path fill="url(#_ÂÁ_Ï_ÌÌ_È_ËÂÌÚ_6-5)" opacity=".38" d="M1110.56 787.41h144.34l50.75-201.31-121.67 165.2-73.42 36.11z"/></g><g mask="url(#mask-18)"><path fill="url(#_ÂÁ_Ï_ÌÌ_È_ËÂÌÚ_6-6)" opacity=".38" d="M1119.17 1419.57l-.07 8.49 56.25-.55 32.89 21.02 199.87-28.07-200.48-23.35-30.15 21.77-58.31.69z"/></g><path class="cls-34" d="M1110.75 1426a19.9 19.9 0 0 0 18.09.12l.24-.12v-80.27l-9.16-4.6-9.16 4.45z"/><path class="cls-35" d="M1119.91 1221.31l-54.78 141.83 54.78 27.77v-169.6z"/><path class="cls-36" d="M1119.91 1221.31l54.77 141.83-54.77 27.77v-169.6z"/><g mask="url(#mask-19)"><path fill="url(#_ÂÁ_Ï_ÌÌ_È_ËÂÌÚ_6-7)" opacity=".38" d="M1796.6 997.81l-.07 8.49 56.24-.55 32.89 21.02 199.87-28.06-200.47-23.35-30.15 21.76-58.31.69z"/></g><path class="cls-34" d="M1788.17 1004.24a19.9 19.9 0 0 0 18.09.12l.24-.12V924l-9.16-4.6-9.16 4.45z"/><path class="cls-35" d="M1797.33 799.56l-54.77 141.82 54.77 27.77V799.56z"/><path class="cls-36" d="M1797.33 799.56l54.78 141.82-54.78 27.77V799.56z"/><g mask="url(#mask-20)"><path fill="url(#_ÂÁ_Ï_ÌÌ_È_ËÂÌÚ_6-8)" opacity=".38" d="M2012.34 1122.07l-.07 8.49 56.25-.55 28.18 18.01 78.96-39.69-74.86-8.72-30.15 21.77-58.31.69z"/></g><path class="cls-34" d="M2003.92 1128.5a19.9 19.9 0 0 0 18.09.12l.24-.12v-80.27l-9.16-4.6-9.16 4.45z"/><path class="cls-35" d="M2013.08 923.82l-54.78 141.82 54.78 27.77V923.82z"/><path class="cls-36" d="M2013.08 923.82l54.77 141.82-54.77 27.77V923.82z"/><g mask="url(#mask-21)"><path fill="url(#_ÂÁ_Ï_ÌÌ_È_ËÂÌÚ_6-9)" opacity=".38" d="M641.09 701.77l-.06 8.49 56.24-.55 32.89 21.02 199.87-28.06-200.47-23.35-30.15 21.76-58.32.69z"/></g><path class="cls-34" d="M632.67 708.2a19.9 19.9 0 0 0 18.09.12l.24-.12v-80.27l-9.16-4.6-9.16 4.45z"/><path class="cls-35" d="M641.83 503.52l-54.77 141.83 54.77 27.77v-169.6z"/><path class="cls-36" d="M641.83 503.52l54.78 141.83-54.78 27.77v-169.6z"/><g mask="url(#mask-22)"><path fill="url(#_ÂÁ_Ï_ÌÌ_È_ËÂÌÚ_6-10)" opacity=".38" d="M452.22 855.63l-.07 8.49 56.25-.55 32.89 21.02 199.87-28.07-200.48-23.35-30.15 21.77-58.31.69z"/></g><path class="cls-34" d="M443.8 862.06a19.9 19.9 0 0 0 18.09.12l.24-.12v-80.27l-9.16-4.6-9.16 4.45z"/><path class="cls-35" d="M452.96 657.38L398.18 799.2l54.78 27.77V657.38z"/><path class="cls-36" d="M452.96 657.38l54.77 141.82-54.77 27.77V657.38z"/><g mask="url(#mask-23)"><path fill="url(#_ÂÁ_Ï_ÌÌ_È_ËÂÌÚ_6-11)" opacity=".38" d="M192.39 927.8l-.07 8.49 56.25-.55 32.89 21.02 199.87-28.07-200.48-23.35-30.15 21.77-58.31.69z"/></g><path class="cls-34" d="M184 934.23a19.9 19.9 0 0 0 18.09.12l.24-.12V854l-9.16-4.6-9.17 4.41z"/><path class="cls-35" d="M193.13 729.54l-54.78 141.83 54.78 27.77v-169.6z"/><path class="cls-36" d="M193.13 729.54l54.77 141.83-54.77 27.77v-169.6z"/><g mask="url(#mask-24)"><path fill="url(#_ÂÁ_Ï_ÌÌ_È_ËÂÌÚ_6-12)" opacity=".38" d="M488.08 1128.28l-.06 8.49 56.24-.56 32.89 21.03 199.87-28.07-200.47-23.35-30.15 21.77-58.32.69z"/></g><path class="cls-34" d="M479.66 1134.71a19.9 19.9 0 0 0 18.09.12l.24-.12v-80.27l-9.16-4.6-9.16 4.45z"/><path class="cls-35" d="M488.82 930.02l-54.77 141.83 54.77 27.77v-169.6z"/><path class="cls-36" d="M488.82 930.02l54.78 141.83-54.78 27.77v-169.6z"/><path class="cls-27" d="M2224.72 407.04l-122.93 6.46-109.97-82.89-142.51-23.37-5.33-101.48 163.4-75.52 133.03 101.73 111.51 11.65 41.16 102.9-68.36 60.52z"/><path class="cls-28" d="M1849.31 307.24l92.23-55.34 50.28 78.71 95.66 4.83 18.68 77.83 65.95-50.18 52.61 43.95 5.41-92.23 62.95 31.71-64.26 68.32-127.34 6.69-85.43-56.8-57.07-15.42-109.67-42.07z"/><path class="cls-29" d="M1843.91 204.43l97.63 47.47-92.23 55.34-5.21-99.1-.19-3.71z"/><path class="cls-30" d="M2230.13 314.81l-58.02 48.28 52.61 43.95 5.41-92.23zM2087.48 335.44l-51.53-80.68-44.13 75.85 95.66 4.83z"/><path class="cls-30" d="M1941.54 251.9l94.41 2.86-41.83-75.78-52.58 72.92zM2087.48 335.44l84.63 27.65-65.95 50.18-18.68-77.83z"/><path class="cls-31" d="M2230.13 314.81l21.79-71.19-111.51-11.65 89.72 82.84z"/><path class="cls-31" d="M2172.11 363.09l-31.7-131.12-52.93 103.47 84.63 27.65zM2035.95 254.76l104.46-22.79-81.09-62.01-23.37 84.8zM1994.12 178.98l13.26-48.74-93.33 43.14 80.07 5.6z"/><path class="cls-29" d="M2016.05 364.73l-24.23-34.12-32.84 18.7 57.07 15.42z"/></g></g></svg>