<svg width="749" height="513" version="1" xmlns="http://www.w3.org/2000/svg"><defs><linearGradient x1="74%" y1="-58%" x2="-37%" y2="129%" id="a"><stop stop-color="#64D7CA" offset="0%"/><stop stop-color="#6B4CE6" offset="100%"/></linearGradient></defs><g fill="none" fill-rule="evenodd"><path d="M597 436c28 9 68 27 97 41 17 9 36 21 55 36v-66l-191-80h-25l-133-4c30 18 170 64 197 73z" fill="#BBCFFF"/><path d="M29 0C14 64 5 119 1 167c-3 47 7 87 29 119 22 31 56 53 104 67 47 14 149 18 306 13L166 0H29z" fill="#BBCFFF"/><path d="M29 0c-39 164-17 268 65 315 123 69 526 76 655 173V0H29z" fill="url(#a)"/></g></svg>