<svg xmlns="http://www.w3.org/2000/svg" viewBox="0 0 71.87 71.87"><defs><style>.cls-1{fill:#fff;}.cls-2{fill:#00bb9c;}.cls-3{fill:#06876e;}.cls-4{fill:none;stroke:#fff;stroke-linecap:round;stroke-linejoin:round;stroke-width:0.62px;}.cls-5{fill:#232323;}.cls-6{fill:#8a3fc4;}</style></defs><title>Asset 9</title><g id="Layer_2" data-name="Layer 2"><g id="Layer_2-2" data-name="Layer 2"><rect class="cls-1" width="71.87" height="71.87" rx="12" ry="12"/><circle class="cls-2" cx="38.67" cy="35.92" r="22.63"/><path class="cls-3" d="M22,51.11s7.74,1.32,13.59-2.45S33.72,52.15,31.92,53s1.79,2.55,8.49-.38,11.7-14.44,9.91-14.44S44.38,48.57,43.25,46s5.6-4,2.74-14.34c-1.84-6.67-5-7.08-4-7.74s4.69,3.3,6.07,8c.83,2.82,2.8,3.13,2.89.85.13-3.05-3.71-7.13-2.55-7.27,2.23-.25,5.66,7.55,5.94,5.38S48.8,17.61,34.19,19.69c-7,1,0-2,5.16-1.57s7.75,1.65,11.64,4c2.58,1.57,1.7-.94,1.7-.94l3.59,2.74s3.87,8.3,2.55,13.59S54.19,51.3,51,53.38s-14.15,4.53-14.15,4.53A21.71,21.71,0,0,1,22,51.11Z"/><path class="cls-3" d="M38.67,13.29A22.55,22.55,0,0,0,23.11,19.5a21.37,21.37,0,1,1,0,32.85A22.63,22.63,0,1,0,38.67,13.29Z"/><circle class="cls-4" cx="38.67" cy="35.92" r="22.63"/><path class="cls-5" d="M51.8,61.76A29.15,29.15,0,1,1,25.3,9.83a1.51,1.51,0,0,1,1.38,2.7A26.13,26.13,0,1,0,50.43,59.06a1.51,1.51,0,0,1,1.38,2.7Zm0,0"/><path class="cls-6" d="M23,12.35a4.39,4.39,0,1,1,5.9,1.91A4.39,4.39,0,0,1,23,12.35Zm0,0"/><path class="cls-6" d="M25.73,8a2.62,2.62,0,0,0,2.38,4.67"/><path class="cls-5" d="M12.72,49.32A29.27,29.27,0,0,0,51.89,61.94a1.64,1.64,0,0,0,.61-2.12,1.49,1.49,0,0,0-2-.66A26.29,26.29,0,0,1,15.42,47.94Zm2.7-1.38"/></g></g></svg>