<svg xmlns="http://www.w3.org/2000/svg" viewBox="0 0 51.4 59.11"><defs><style>.cls-1{fill:#00bb9c;}.cls-2{fill:#232323;}.cls-3{fill:#8a3fc4;}.cls-4{fill:#009e80;}</style></defs><title>Asset 2</title><g id="Layer_2" data-name="Layer 2"><g id="Layer_2-2" data-name="Layer 2"><circle class="cls-1" cx="29.89" cy="29.25" r="21.51"/><path class="cls-2" d="M42.39,55.79A29.15,29.15,0,1,1,15.88,3.86a1.55,1.55,0,0,1,2,.66,1.55,1.55,0,0,1-.66,2A26.13,26.13,0,1,0,41,53.1a1.51,1.51,0,0,1,1.38,2.7Zm0,0"/><path class="cls-3" d="M13.6,6.39a4.39,4.39,0,1,1,5.9,1.91,4.39,4.39,0,0,1-5.9-1.91Zm0,0"/><path class="cls-3" d="M16.32,2.05A2.62,2.62,0,0,0,18.7,6.73"/><path class="cls-2" d="M3.31,43.35A29.27,29.27,0,0,0,42.48,56a1.64,1.64,0,0,0,.61-2.12,1.49,1.49,0,0,0-2-.66A26.29,26.29,0,0,1,6,42ZM6,42"/></g><g id="Layer_3" data-name="Layer 3"><path class="cls-4" d="M21.53,9.42C10.29,14.31,5.33,27.68,10.31,38.21S29.12,54.34,39.9,48.3Z"/></g></g></svg>