<svg xmlns="http://www.w3.org/2000/svg" viewBox="0 0 52.2 59.11"><defs><style>.cls-1{fill:#00bb9c;}.cls-2{fill:#06876e;}.cls-3{fill:none;stroke:#fff;stroke-linecap:round;stroke-linejoin:round;stroke-width:0.62px;}.cls-4{fill:#232323;}.cls-5{fill:#8a3fc4;}</style></defs><title>Asset 5</title><g id="Layer_2" data-name="Layer 2"><g id="Layer_2-2" data-name="Layer 2"><circle class="cls-1" cx="29.26" cy="29.96" r="22.63"/><path class="cls-2" d="M12.6,45.15s7.74,1.32,13.59-2.45S24.3,46.19,22.51,47s1.79,2.55,8.49-.38,11.7-14.44,9.91-14.44S35,42.6,33.83,40.05s5.6-4,2.74-14.34c-1.84-6.67-5-7.08-4-7.74s4.69,3.3,6.07,8c.83,2.82,2.8,3.13,2.89.85.13-3.05-3.71-7.13-2.55-7.27,2.23-.25,5.66,7.55,5.94,5.38S39.38,11.64,24.77,13.73c-7,1,0-2,5.16-1.57s7.75,1.65,11.64,4c2.58,1.57,1.7-.94,1.7-.94L46.85,18s3.87,8.3,2.55,13.59-4.62,13.78-7.83,15.85-14.15,4.53-14.15,4.53A21.71,21.71,0,0,1,12.6,45.15Z"/><path class="cls-2" d="M29.26,7.32A22.55,22.55,0,0,0,13.7,13.53a21.37,21.37,0,1,1,0,32.85A22.63,22.63,0,1,0,29.26,7.32Z"/><circle class="cls-3" cx="29.26" cy="29.96" r="22.63"/><path class="cls-4" d="M42.39,55.79A29.15,29.15,0,1,1,15.88,3.86a1.55,1.55,0,0,1,2,.66,1.55,1.55,0,0,1-.66,2A26.13,26.13,0,1,0,41,53.1a1.51,1.51,0,0,1,1.38,2.7Zm0,0"/><path class="cls-5" d="M13.6,6.39a4.39,4.39,0,1,1,5.9,1.91,4.39,4.39,0,0,1-5.9-1.91Zm0,0"/><path class="cls-5" d="M16.32,2.05A2.62,2.62,0,0,0,18.7,6.73"/><path class="cls-4" d="M3.31,43.35A29.27,29.27,0,0,0,42.48,56a1.64,1.64,0,0,0,.61-2.12,1.49,1.49,0,0,0-2-.66A26.29,26.29,0,0,1,6,42ZM6,42"/></g></g></svg>