<svg xmlns="http://www.w3.org/2000/svg" viewBox="0 0 52.2 59"><defs><style>.cls-2{fill:#0f886e}</style></defs><g id="Layer_2" data-name="Layer 2"><g id="Layer_1-2" data-name="Layer 1"><circle cx="29.3" cy="30" r="22.6" fill="#19b89a"/><path class="cls-2" d="M12.6 45.1s7.7 1.4 13.6-2.4-1.9 3.5-3.7 4.3 1.8 2.5 8.5-.4 11.7-14.4 10-14.4-6 10.4-7.2 7.8 5.6-4 2.8-14.3c-1.9-6.7-5-7-4-7.7s4.7 3.3 6 8c.9 2.8 2.8 3.1 3 .8 0-3-3.8-7.1-2.6-7.3 2.2-.2 5.6 7.6 6 5.4s-5.6-13.3-20.2-11.2c-7 1 0-2 5.1-1.5s7.8 1.6 11.7 4c2.5 1.5 1.7-1 1.7-1l3.6 2.8s3.8 8.3 2.5 13.6-4.6 13.8-7.8 15.8S27.4 52 27.4 52A21.7 21.7 0 0 1 12.6 45z"/><path class="cls-2" d="M29.3 7.3a22.6 22.6 0 0 0-15.6 6.2 21.4 21.4 0 1 1 0 32.9 22.6 22.6 0 1 0 15.6-39z"/><circle cx="29.3" cy="30" r="22.6" fill="none" stroke="#fff" stroke-linecap="round" stroke-linejoin="round" stroke-width=".6"/><path d="M42.4 55.8a29.1 29.1 0 1 1-26.5-52 1.6 1.6 0 0 1 2 .7 1.6 1.6 0 0 1-.7 2A26.1 26.1 0 1 0 41 53.1a1.5 1.5 0 0 1 1.4 2.7zm0 0" fill="#232323"/><path d="M13.6 6.4a4.4 4.4 0 1 1 5.9 1.9 4.4 4.4 0 0 1-5.9-2zm0 0" fill="#7e4fa0"/></g></g></svg>