<svg xmlns="http://www.w3.org/2000/svg" viewBox="0 0 71.9 71.9"><defs><style>.cls-3{fill:#0f886e}</style></defs><g id="Layer_2" data-name="Layer 2"><g id="Layer_1-2" data-name="Layer 1"><rect width="71.9" height="71.9" rx="12" ry="12" fill="#fff"/><circle cx="38.7" cy="35.9" r="22.6" fill="#19b89a"/><path class="cls-3" d="M22 51.1s7.7 1.3 13.6-2.4-1.9 3.4-3.7 4.3 1.8 2.5 8.5-.4 11.7-14.4 10-14.4-6 10.4-7.1 7.8 5.6-4 2.7-14.3c-1.8-6.7-5-7.1-4-7.8s4.7 3.3 6 8c.9 2.8 2.9 3.2 3 .9 0-3-3.8-7.2-2.6-7.3 2.2-.2 5.7 7.6 6 5.4s-5.6-13.3-20.2-11.2c-7 1 0-2 5.1-1.6s7.8 1.7 11.7 4c2.6 1.6 1.7-1 1.7-1l3.6 2.8s3.9 8.3 2.5 13.6-4.6 13.8-7.8 15.9-14.2 4.5-14.2 4.5A21.7 21.7 0 0 1 22 51.1z"/><path class="cls-3" d="M38.7 13.3A22.6 22.6 0 0 0 23 19.5a21.4 21.4 0 1 1 0 32.9 22.6 22.6 0 1 0 15.6-39.1z"/><circle cx="38.7" cy="35.9" r="22.6" fill="none" stroke="#fff" stroke-linecap="round" stroke-linejoin="round" stroke-width=".6"/><path d="M51.8 61.8a29.1 29.1 0 1 1-26.5-52 1.5 1.5 0 0 1 1.4 2.7 26.1 26.1 0 1 0 23.7 46.6 1.5 1.5 0 0 1 1.4 2.7zm0 0" fill="#232323"/><path d="M23 12.3a4.4 4.4 0 1 1 5.9 2 4.4 4.4 0 0 1-5.9-2zm0 0" fill="#7e4fa0"/></g></g></svg>